<?xml version="1.0" encoding="UTF-8"?>
<!DOCTYPE svg PUBLIC "-//W3C//DTD SVG 1.1//EN" "http://www.w3.org/Graphics/SVG/1.1/DTD/svg11.dtd">
<svg version="1.1" xmlns="http://www.w3.org/2000/svg" xmlns:xlink="http://www.w3.org/1999/xlink" x="0px" y="0px" width="1200" height="960" viewBox="0, 0, 1200, 960">
  <g id="Background">
    <rect x="0" y="0" width="1200" height="960" fill="#000000" fill-opacity="0"/>
  </g>
  <g id="Layer 1">
    <g>
      <path d="M180.5,120.5 L240.5,120.5 L240.5,180.5 L180.5,180.5 z" fill="#8FC7ED"/>
      <path d="M180.5,120.5 L240.5,120.5 L240.5,180.5 L180.5,180.5 z" fill-opacity="0" stroke="#294270" stroke-width="4"/>
    </g>
    <g>
      <path d="M120.5,120.5 L180.5,120.5 L180.5,180.5 L120.5,180.5 z" fill="#8FC7ED"/>
      <path d="M120.5,120.5 L180.5,120.5 L180.5,180.5 L120.5,180.5 z" fill-opacity="0" stroke="#294270" stroke-width="4"/>
    </g>
    <g>
      <path d="M180.5,60.5 L240.5,60.5 L240.5,120.5 L180.5,120.5 z" fill="#8FC7ED"/>
      <path d="M180.5,60.5 L240.5,60.5 L240.5,120.5 L180.5,120.5 z" fill-opacity="0" stroke="#294270" stroke-width="4"/>
    </g>
    <g>
      <path d="M240.5,60.5 L300.5,60.5 L300.5,120.5 L240.5,120.5 z" fill="#8FC7ED"/>
      <path d="M240.5,60.5 L300.5,60.5 L300.5,120.5 L240.5,120.5 z" fill-opacity="0" stroke="#294270" stroke-width="4"/>
    </g>
    <g>
      <path d="M120.5,60.5 L180.5,60.5 L180.5,120.5 L120.5,120.5 z" fill="#65A1CF"/>
      <path d="M120.5,60.5 L180.5,60.5 L180.5,120.5 L120.5,120.5 z" fill-opacity="0" stroke="#294270" stroke-width="4"/>
    </g>
    <g>
      <path d="M120.5,180.5 L180.5,180.5 L180.5,240.5 L120.5,240.5 z" fill="#8FC7ED"/>
      <path d="M120.5,180.5 L180.5,180.5 L180.5,240.5 L120.5,240.5 z" fill-opacity="0" stroke="#294270" stroke-width="4"/>
    </g>
    <g>
      <path d="M180.5,180.5 L240.5,180.5 L240.5,240.5 L180.5,240.5 z" fill="#8FC7ED"/>
      <path d="M180.5,180.5 L240.5,180.5 L240.5,240.5 L180.5,240.5 z" fill-opacity="0" stroke="#294270" stroke-width="4"/>
    </g>
    <g>
      <path d="M240.5,180.5 L300.5,180.5 L300.5,240.5 L240.5,240.5 z" fill="#8FC7ED"/>
      <path d="M240.5,180.5 L300.5,180.5 L300.5,240.5 L240.5,240.5 z" fill-opacity="0" stroke="#294270" stroke-width="4"/>
    </g>
    <g>
      <path d="M240.5,120.5 L300.5,120.5 L300.5,180.5 L240.5,180.5 z" fill="#8FC7ED"/>
      <path d="M240.5,120.5 L300.5,120.5 L300.5,180.5 L240.5,180.5 z" fill-opacity="0" stroke="#294270" stroke-width="4"/>
    </g>
    <g>
      <path d="M480.5,120.5 L540.5,120.5 L540.5,180.5 L480.5,180.5 z" fill="#294270"/>
      <path d="M480.5,120.5 L540.5,120.5 L540.5,180.5 L480.5,180.5 z" fill-opacity="0" stroke="#294270" stroke-width="4"/>
    </g>
    <g>
      <path d="M420.5,120.5 L480.5,120.5 L480.5,180.5 L420.5,180.5 z" fill="#8FC7ED"/>
      <path d="M420.5,120.5 L480.5,120.5 L480.5,180.5 L420.5,180.5 z" fill-opacity="0" stroke="#294270" stroke-width="4"/>
    </g>
    <g>
      <path d="M480.5,60.5 L540.5,60.5 L540.5,120.5 L480.5,120.5 z" fill="#8FC7ED"/>
      <path d="M480.5,60.5 L540.5,60.5 L540.5,120.5 L480.5,120.5 z" fill-opacity="0" stroke="#294270" stroke-width="4"/>
    </g>
    <g>
      <path d="M540.5,60.5 L600.5,60.5 L600.5,120.5 L540.5,120.5 z" fill="#8FC7ED"/>
      <path d="M540.5,60.5 L600.5,60.5 L600.5,120.5 L540.5,120.5 z" fill-opacity="0" stroke="#294270" stroke-width="4"/>
    </g>
    <g>
      <path d="M420.5,60.5 L480.5,60.5 L480.5,120.5 L420.5,120.5 z" fill="#65A1CF"/>
      <path d="M420.5,60.5 L480.5,60.5 L480.5,120.5 L420.5,120.5 z" fill-opacity="0" stroke="#294270" stroke-width="4"/>
    </g>
    <g>
      <path d="M420.5,180.5 L480.5,180.5 L480.5,240.5 L420.5,240.5 z" fill="#8FC7ED"/>
      <path d="M420.5,180.5 L480.5,180.5 L480.5,240.5 L420.5,240.5 z" fill-opacity="0" stroke="#294270" stroke-width="4"/>
    </g>
    <g>
      <path d="M480.5,180.5 L540.5,180.5 L540.5,240.5 L480.5,240.5 z" fill="#8FC7ED"/>
      <path d="M480.5,180.5 L540.5,180.5 L540.5,240.5 L480.5,240.5 z" fill-opacity="0" stroke="#294270" stroke-width="4"/>
    </g>
    <g>
      <path d="M540.5,180.5 L600.5,180.5 L600.5,240.5 L540.5,240.5 z" fill="#8FC7ED"/>
      <path d="M540.5,180.5 L600.5,180.5 L600.5,240.5 L540.5,240.5 z" fill-opacity="0" stroke="#294270" stroke-width="4"/>
    </g>
    <g>
      <path d="M540.5,120.5 L600.5,120.5 L600.5,180.5 L540.5,180.5 z" fill="#8FC7ED"/>
      <path d="M540.5,120.5 L600.5,120.5 L600.5,180.5 L540.5,180.5 z" fill-opacity="0" stroke="#294270" stroke-width="4"/>
    </g>
    <path d="M452.011,88.386 L572.011,88.386" fill-opacity="0" stroke="#F0801A" stroke-width="4"/>
    <path d="M572.011,88.386 L572.011,208.386" fill-opacity="0" stroke="#F0801A" stroke-width="4"/>
    <path d="M452.012,88.386 L452.011,148.386" fill-opacity="0" stroke="#F0801A" stroke-width="4"/>
    <path d="M452.011,148.386 L480.5,180.5" fill-opacity="0" stroke="#F0801A" stroke-width="4"/>
    <path d="M569.377,190 C569.765,192.357 569.853,194.76 569.86,197.154 C570.359,196.972 570.94,196.868 571.565,196.868 C572.317,196.868 573.009,197.016 573.56,197.276 C574.193,194.654 574.944,192.284 575.741,190.296 C575.972,192.527 575.972,195.271 575.733,198.292 C575.6,203.814 579.746,200.923 581.324,196.989 C581.748,195.948 583.051,194.316 584.569,194.515 C592.921,195.661 595.824,206.106 594.804,214.259 C594.767,214.546 594.723,214.667 594.671,214.685 C593.569,209.137 591.083,205.359 589.147,205.924 C587.212,206.479 586.512,211.038 587.443,216.508 C587.443,216.56 587.435,216.578 587.42,216.56 C586.758,215.805 586.118,215.301 585.5,214.997 C584.435,214.329 583.356,214.033 582.351,214.216 C580.296,214.589 579.076,216.873 578.949,219.998 C578.934,220.042 578.912,220.094 578.897,220.146 C578.852,220.259 578.823,219.92 578.785,219.807 C575.22,209.588 571.267,232.076 565.275,228.256 C564.687,227.882 564.314,227.691 564.166,227.691 C563.86,227.691 563.607,228.151 563.406,229.072 C563.28,229.657 563.002,230 562.484,230 C561.385,229.688 560.711,228.277 560.131,227.257 C560.652,227.587 561.091,227.752 561.441,227.752 C561.903,227.752 562.23,227.361 562.424,226.562 C562.573,225.972 562.878,224.426 563.607,224.426 C563.823,224.426 564.084,224.618 564.374,224.991 C566.563,227.326 568.185,225.26 567.992,222.16 C567.739,218.036 565.2,213.434 560.823,218.045 C560.689,218.184 560.414,218.705 560.422,218.487 C560.652,212.436 555.695,211.411 551.846,215.275 C552.159,207.504 546.821,208.312 545.199,211.689 C545.132,211.828 545.02,211.811 545.02,211.802 C544.559,205.75 552.092,196.191 557.168,196.347 C558.866,196.408 560.191,197.962 560.652,198.7 C561.106,199.438 562.32,201.904 563.332,202.069 C564.337,202.225 566.153,202.182 566.883,200.202 C567.069,199.707 567.233,199.143 567.381,198.57 C567.751,195.965 568.386,193.435 569.083,190.929 z M574.498,201.791 L572.175,203.206 C572.364,203.392 572.407,203.46 572.69,203.567 C573.285,203.793 574.084,203.546 574.425,202.906 C574.591,202.595 574.586,202.383 574.561,202.049 z M567.798,202.173 C567.751,202.477 567.705,202.6 567.82,202.943 C568.091,203.752 569.111,203.964 569.727,203.645 C570.044,203.48 570.082,203.39 570.27,203.137 z M574.743,205.524 C574.647,205.655 574.483,205.802 574.252,205.967 C574.163,206.028 574.058,206.098 573.947,206.158 L573.939,206.966 C574.401,206.488 574.669,206.011 574.743,205.524 z M567.813,205.568 C567.884,206.032 568.077,206.315 568.32,206.662 C568.446,206.818 568.587,206.966 568.751,207.114 L568.736,206.254 C568.264,205.987 568.524,206.151 567.967,205.737 z M573.195,206.488 C572.622,206.688 571.982,206.784 571.275,206.784 C570.612,206.784 570.002,206.697 569.451,206.523 L568.922,207.252 C569.638,207.75 570.443,207.863 571.26,207.886 C572.265,207.886 573.069,207.643 573.686,207.174 z" fill="#294270"/>
    <path d="M449.377,70 C449.765,72.357 449.853,74.76 449.86,77.154 C450.359,76.972 450.94,76.868 451.565,76.868 C452.317,76.868 453.009,77.016 453.56,77.276 C454.193,74.654 454.944,72.284 455.741,70.296 C455.972,72.527 455.972,75.271 455.733,78.292 C455.6,83.814 459.746,80.923 461.324,76.989 C461.748,75.948 463.051,74.316 464.569,74.515 C472.921,75.661 475.824,86.106 474.804,94.259 C474.767,94.546 474.723,94.667 474.671,94.685 C473.569,89.137 471.083,85.359 469.147,85.924 C467.212,86.479 466.512,91.038 467.443,96.508 C467.443,96.56 467.435,96.578 467.42,96.56 C466.758,95.805 466.118,95.301 465.5,94.997 C464.435,94.329 463.356,94.033 462.351,94.216 C460.296,94.589 459.076,96.873 458.949,99.998 C458.934,100.042 458.912,100.094 458.897,100.146 C458.852,100.259 458.823,99.92 458.785,99.807 C455.22,89.588 451.267,112.076 445.275,108.256 C444.687,107.882 444.314,107.691 444.166,107.691 C443.86,107.691 443.607,108.151 443.406,109.072 C443.28,109.657 443.002,110 442.484,110 C441.385,109.688 440.711,108.277 440.131,107.257 C440.652,107.587 441.091,107.752 441.441,107.752 C441.903,107.752 442.23,107.361 442.424,106.562 C442.573,105.972 442.878,104.426 443.607,104.426 C443.823,104.426 444.084,104.618 444.374,104.991 C446.563,107.326 448.185,105.26 447.992,102.16 C447.739,98.036 445.2,93.434 440.823,98.045 C440.689,98.184 440.414,98.705 440.421,98.487 C440.652,92.436 435.695,91.411 431.846,95.275 C432.159,87.504 426.821,88.312 425.199,91.689 C425.132,91.828 425.02,91.811 425.02,91.802 C424.559,85.75 432.092,76.191 437.168,76.347 C438.866,76.408 440.191,77.962 440.652,78.7 C441.106,79.438 442.32,81.904 443.332,82.069 C444.337,82.225 446.153,82.182 446.883,80.202 C447.069,79.707 447.233,79.143 447.381,78.57 C447.751,75.965 448.386,73.435 449.083,70.929 z M454.498,81.791 L452.175,83.206 C452.364,83.392 452.407,83.46 452.69,83.567 C453.285,83.793 454.084,83.546 454.425,82.906 C454.591,82.595 454.586,82.383 454.561,82.049 z M447.798,82.173 C447.751,82.477 447.705,82.6 447.82,82.943 C448.091,83.752 449.111,83.964 449.727,83.645 C450.044,83.48 450.082,83.39 450.27,83.137 z M454.743,85.524 C454.647,85.655 454.483,85.802 454.252,85.967 C454.163,86.028 454.058,86.098 453.947,86.158 L453.939,86.966 C454.401,86.488 454.669,86.011 454.743,85.524 z M447.813,85.568 C447.884,86.032 448.077,86.315 448.32,86.662 C448.446,86.818 448.587,86.966 448.751,87.114 L448.736,86.254 C448.264,85.987 448.524,86.151 447.967,85.737 z M453.195,86.488 C452.622,86.688 451.982,86.784 451.275,86.784 C450.612,86.784 450.002,86.697 449.451,86.523 L448.922,87.252 C449.638,87.75 450.443,87.863 451.26,87.886 C452.265,87.886 453.069,87.643 453.686,87.174 z" fill="#737370"/>
    <path d="M569.377,70 C569.765,72.357 569.853,74.76 569.86,77.154 C570.359,76.972 570.94,76.868 571.565,76.868 C572.317,76.868 573.009,77.016 573.56,77.276 C574.193,74.654 574.944,72.284 575.741,70.296 C575.972,72.527 575.972,75.271 575.733,78.292 C575.6,83.814 579.746,80.923 581.324,76.989 C581.748,75.948 583.051,74.316 584.569,74.515 C592.921,75.661 595.824,86.106 594.804,94.259 C594.767,94.546 594.723,94.667 594.671,94.685 C593.569,89.137 591.083,85.359 589.147,85.924 C587.212,86.479 586.512,91.038 587.443,96.508 C587.443,96.56 587.435,96.578 587.42,96.56 C586.758,95.805 586.118,95.301 585.5,94.997 C584.435,94.329 583.356,94.033 582.351,94.216 C580.296,94.589 579.076,96.873 578.949,99.998 C578.934,100.042 578.912,100.094 578.897,100.146 C578.852,100.259 578.823,99.92 578.785,99.807 C575.22,89.588 571.267,112.076 565.275,108.256 C564.687,107.882 564.314,107.691 564.166,107.691 C563.86,107.691 563.607,108.151 563.406,109.072 C563.28,109.657 563.002,110 562.484,110 C561.385,109.688 560.711,108.277 560.131,107.257 C560.652,107.587 561.091,107.752 561.441,107.752 C561.903,107.752 562.23,107.361 562.424,106.562 C562.573,105.972 562.878,104.426 563.607,104.426 C563.823,104.426 564.084,104.618 564.374,104.991 C566.563,107.326 568.185,105.26 567.992,102.16 C567.739,98.036 565.2,93.434 560.823,98.045 C560.689,98.184 560.414,98.705 560.422,98.487 C560.652,92.436 555.695,91.411 551.846,95.275 C552.159,87.504 546.821,88.312 545.199,91.689 C545.132,91.828 545.02,91.811 545.02,91.802 C544.559,85.75 552.092,76.191 557.168,76.347 C558.866,76.408 560.191,77.962 560.652,78.7 C561.106,79.438 562.32,81.904 563.332,82.069 C564.337,82.225 566.153,82.182 566.883,80.202 C567.069,79.707 567.233,79.143 567.381,78.57 C567.751,75.965 568.386,73.435 569.083,70.929 z M574.498,81.791 L572.175,83.206 C572.364,83.392 572.407,83.46 572.69,83.567 C573.285,83.793 574.084,83.546 574.425,82.906 C574.591,82.595 574.586,82.383 574.561,82.049 z M567.798,82.173 C567.751,82.477 567.705,82.6 567.82,82.943 C568.091,83.752 569.111,83.964 569.727,83.645 C570.044,83.48 570.082,83.39 570.27,83.137 z M574.743,85.524 C574.647,85.655 574.483,85.802 574.252,85.967 C574.163,86.028 574.058,86.098 573.947,86.158 L573.939,86.966 C574.401,86.488 574.669,86.011 574.743,85.524 z M567.813,85.568 C567.884,86.032 568.077,86.315 568.32,86.662 C568.446,86.818 568.587,86.966 568.751,87.114 L568.736,86.254 C568.264,85.987 568.524,86.151 567.967,85.737 z M573.195,86.488 C572.622,86.688 571.982,86.784 571.275,86.784 C570.612,86.784 570.002,86.697 569.451,86.523 L568.922,87.252 C569.638,87.75 570.443,87.863 571.26,87.886 C572.265,87.886 573.069,87.643 573.686,87.174 z" fill="#737370"/>
    <path d="M449.377,130 C449.765,132.357 449.853,134.76 449.86,137.154 C450.359,136.972 450.94,136.868 451.565,136.868 C452.317,136.868 453.009,137.016 453.56,137.276 C454.193,134.654 454.944,132.284 455.741,130.296 C455.972,132.527 455.972,135.271 455.733,138.292 C455.6,143.814 459.746,140.923 461.324,136.989 C461.748,135.948 463.051,134.316 464.569,134.515 C472.921,135.661 475.824,146.106 474.804,154.259 C474.767,154.546 474.723,154.667 474.671,154.685 C473.569,149.137 471.083,145.359 469.147,145.924 C467.212,146.479 466.512,151.038 467.443,156.508 C467.443,156.56 467.435,156.578 467.42,156.56 C466.758,155.805 466.118,155.301 465.5,154.997 C464.435,154.329 463.356,154.033 462.351,154.216 C460.296,154.589 459.076,156.873 458.949,159.998 C458.934,160.042 458.912,160.094 458.897,160.146 C458.852,160.259 458.823,159.92 458.785,159.807 C455.22,149.588 451.267,172.076 445.275,168.256 C444.687,167.882 444.314,167.691 444.166,167.691 C443.86,167.691 443.607,168.151 443.406,169.072 C443.28,169.657 443.002,170 442.484,170 C441.385,169.688 440.711,168.277 440.131,167.257 C440.652,167.587 441.091,167.752 441.441,167.752 C441.903,167.752 442.23,167.361 442.424,166.562 C442.573,165.972 442.878,164.426 443.607,164.426 C443.823,164.426 444.084,164.618 444.374,164.991 C446.563,167.326 448.185,165.26 447.992,162.16 C447.739,158.036 445.2,153.434 440.823,158.045 C440.689,158.184 440.414,158.705 440.421,158.487 C440.652,152.436 435.695,151.411 431.846,155.275 C432.159,147.504 426.821,148.312 425.199,151.689 C425.132,151.828 425.02,151.811 425.02,151.802 C424.559,145.75 432.092,136.191 437.168,136.347 C438.866,136.408 440.191,137.962 440.652,138.7 C441.106,139.438 442.32,141.904 443.332,142.069 C444.337,142.225 446.153,142.182 446.883,140.202 C447.069,139.707 447.233,139.143 447.381,138.57 C447.751,135.965 448.386,133.435 449.083,130.929 z M454.498,141.791 L452.175,143.206 C452.364,143.392 452.407,143.46 452.69,143.567 C453.285,143.793 454.084,143.546 454.425,142.906 C454.591,142.595 454.586,142.383 454.561,142.049 z M447.798,142.173 C447.751,142.477 447.705,142.6 447.82,142.943 C448.091,143.752 449.111,143.964 449.727,143.645 C450.044,143.48 450.082,143.39 450.27,143.137 z M454.743,145.524 C454.647,145.655 454.483,145.802 454.252,145.967 C454.163,146.028 454.058,146.098 453.947,146.158 L453.939,146.966 C454.401,146.488 454.669,146.011 454.743,145.524 z M447.813,145.568 C447.884,146.032 448.077,146.315 448.32,146.662 C448.446,146.818 448.587,146.966 448.751,147.114 L448.736,146.254 C448.264,145.987 448.524,146.151 447.967,145.737 z M453.195,146.488 C452.622,146.688 451.982,146.784 451.275,146.784 C450.612,146.784 450.002,146.697 449.451,146.523 L448.922,147.252 C449.638,147.75 450.443,147.863 451.26,147.886 C452.265,147.886 453.069,147.643 453.686,147.174 z" fill="#737370"/>
    <g>
      <path d="M780.5,120.5 L840.5,120.5 L840.5,180.5 L780.5,180.5 z" fill="#294270"/>
      <path d="M780.5,120.5 L840.5,120.5 L840.5,180.5 L780.5,180.5 z" fill-opacity="0" stroke="#294270" stroke-width="4"/>
    </g>
    <g>
      <path d="M720.5,120.5 L780.5,120.5 L780.5,180.5 L720.5,180.5 z" fill="#8FC7ED"/>
      <path d="M720.5,120.5 L780.5,120.5 L780.5,180.5 L720.5,180.5 z" fill-opacity="0" stroke="#294270" stroke-width="4"/>
    </g>
    <g>
      <path d="M780.5,60.5 L840.5,60.5 L840.5,120.5 L780.5,120.5 z" fill="#294270"/>
      <path d="M780.5,60.5 L840.5,60.5 L840.5,120.5 L780.5,120.5 z" fill-opacity="0" stroke="#294270" stroke-width="4"/>
    </g>
    <g>
      <path d="M840.5,60.5 L900.5,60.5 L900.5,120.5 L840.5,120.5 z" fill="#8FC7ED"/>
      <path d="M840.5,60.5 L900.5,60.5 L900.5,120.5 L840.5,120.5 z" fill-opacity="0" stroke="#294270" stroke-width="4"/>
    </g>
    <g>
      <path d="M720.5,60.5 L780.5,60.5 L780.5,120.5 L720.5,120.5 z" fill="#65A1CF"/>
      <path d="M720.5,60.5 L780.5,60.5 L780.5,120.5 L720.5,120.5 z" fill-opacity="0" stroke="#294270" stroke-width="4"/>
    </g>
    <g>
      <path d="M720.5,180.5 L780.5,180.5 L780.5,240.5 L720.5,240.5 z" fill="#8FC7ED"/>
      <path d="M720.5,180.5 L780.5,180.5 L780.5,240.5 L720.5,240.5 z" fill-opacity="0" stroke="#294270" stroke-width="4"/>
    </g>
    <g>
      <path d="M780.5,180.5 L840.5,180.5 L840.5,240.5 L780.5,240.5 z" fill="#8FC7ED"/>
      <path d="M780.5,180.5 L840.5,180.5 L840.5,240.5 L780.5,240.5 z" fill-opacity="0" stroke="#294270" stroke-width="4"/>
    </g>
    <g>
      <path d="M840.5,180.5 L900.5,180.5 L900.5,240.5 L840.5,240.5 z" fill="#8FC7ED"/>
      <path d="M840.5,180.5 L900.5,180.5 L900.5,240.5 L840.5,240.5 z" fill-opacity="0" stroke="#294270" stroke-width="4"/>
    </g>
    <g>
      <path d="M840.5,120.5 L900.5,120.5 L900.5,180.5 L840.5,180.5 z" fill="#8FC7ED"/>
      <path d="M840.5,120.5 L900.5,120.5 L900.5,180.5 L840.5,180.5 z" fill-opacity="0" stroke="#294270" stroke-width="4"/>
    </g>
    <g>
      <path d="M960.5,120.5 L1020.5,120.5 L1020.5,180.5 L960.5,180.5 z" fill="#294270"/>
      <path d="M960.5,120.5 L1020.5,120.5 L1020.5,180.5 L960.5,180.5 z" fill-opacity="0" stroke="#294270" stroke-width="4"/>
    </g>
    <g>
      <path d="M900.5,120.5 L960.5,120.5 L960.5,180.5 L900.5,180.5 z" fill="#294270"/>
      <path d="M900.5,120.5 L960.5,120.5 L960.5,180.5 L900.5,180.5 z" fill-opacity="0" stroke="#294270" stroke-width="4"/>
    </g>
    <g>
      <path d="M960.5,60.5 L1020.5,60.5 L1020.5,120.5 L960.5,120.5 z" fill="#8FC7ED"/>
      <path d="M960.5,60.5 L1020.5,60.5 L1020.5,120.5 L960.5,120.5 z" fill-opacity="0" stroke="#294270" stroke-width="4"/>
    </g>
    <g>
      <path d="M1020.5,60.5 L1080.5,60.5 L1080.5,120.5 L1020.5,120.5 z" fill="#8FC7ED"/>
      <path d="M1020.5,60.5 L1080.5,60.5 L1080.5,120.5 L1020.5,120.5 z" fill-opacity="0" stroke="#294270" stroke-width="4"/>
    </g>
    <g>
      <path d="M900.5,60.5 L960.5,60.5 L960.5,120.5 L900.5,120.5 z" fill="#8FC7ED"/>
      <path d="M900.5,60.5 L960.5,60.5 L960.5,120.5 L900.5,120.5 z" fill-opacity="0" stroke="#294270" stroke-width="4"/>
    </g>
    <g>
      <path d="M900.5,180.5 L960.5,180.5 L960.5,240.5 L900.5,240.5 z" fill="#294270"/>
      <path d="M900.5,180.5 L960.5,180.5 L960.5,240.5 L900.5,240.5 z" fill-opacity="0" stroke="#294270" stroke-width="4"/>
    </g>
    <g>
      <path d="M960.5,180.5 L1020.5,180.5 L1020.5,240.5 L960.5,240.5 z" fill="#8FC7ED"/>
      <path d="M960.5,180.5 L1020.5,180.5 L1020.5,240.5 L960.5,240.5 z" fill-opacity="0" stroke="#294270" stroke-width="4"/>
    </g>
    <g>
      <path d="M1020.5,180.5 L1080.5,180.5 L1080.5,240.5 L1020.5,240.5 z" fill="#8FC7ED"/>
      <path d="M1020.5,180.5 L1080.5,180.5 L1080.5,240.5 L1020.5,240.5 z" fill-opacity="0" stroke="#294270" stroke-width="4"/>
    </g>
    <g>
      <path d="M1020.5,120.5 L1080.5,120.5 L1080.5,180.5 L1020.5,180.5 z" fill="#8FC7ED"/>
      <path d="M1020.5,120.5 L1080.5,120.5 L1080.5,180.5 L1020.5,180.5 z" fill-opacity="0" stroke="#294270" stroke-width="4"/>
    </g>
    <path d="M151.76,88.386 L270.5,215.5" fill-opacity="0" stroke="#F0801A" stroke-width="4"/>
    <path d="M269.377,190 C269.765,192.357 269.853,194.76 269.86,197.154 C270.359,196.972 270.94,196.868 271.565,196.868 C272.317,196.868 273.009,197.016 273.56,197.276 C274.193,194.654 274.944,192.284 275.741,190.296 C275.972,192.527 275.972,195.271 275.733,198.292 C275.6,203.814 279.746,200.923 281.324,196.989 C281.748,195.948 283.051,194.316 284.569,194.515 C292.921,195.661 295.824,206.106 294.804,214.259 C294.767,214.546 294.723,214.667 294.671,214.685 C293.569,209.137 291.083,205.359 289.147,205.924 C287.212,206.479 286.512,211.038 287.443,216.508 C287.443,216.56 287.435,216.578 287.42,216.56 C286.758,215.805 286.118,215.301 285.5,214.997 C284.435,214.329 283.356,214.033 282.351,214.216 C280.296,214.589 279.076,216.873 278.949,219.998 C278.934,220.042 278.912,220.094 278.897,220.146 C278.852,220.259 278.823,219.92 278.785,219.807 C275.22,209.588 271.267,232.076 265.275,228.256 C264.687,227.882 264.314,227.691 264.166,227.691 C263.86,227.691 263.607,228.151 263.406,229.072 C263.28,229.657 263.002,230 262.484,230 C261.385,229.688 260.711,228.277 260.131,227.257 C260.652,227.587 261.091,227.752 261.441,227.752 C261.903,227.752 262.23,227.361 262.424,226.562 C262.573,225.972 262.878,224.426 263.607,224.426 C263.823,224.426 264.084,224.618 264.374,224.991 C266.563,227.326 268.185,225.26 267.992,222.16 C267.739,218.036 265.2,213.434 260.823,218.045 C260.689,218.184 260.414,218.705 260.421,218.487 C260.652,212.436 255.695,211.411 251.846,215.275 C252.159,207.504 246.821,208.312 245.199,211.689 C245.132,211.828 245.02,211.811 245.02,211.802 C244.559,205.75 252.092,196.191 257.168,196.347 C258.866,196.408 260.191,197.962 260.652,198.7 C261.106,199.438 262.32,201.904 263.332,202.069 C264.337,202.225 266.153,202.182 266.883,200.202 C267.069,199.707 267.233,199.143 267.381,198.57 C267.751,195.965 268.386,193.435 269.083,190.929 z M274.498,201.791 L272.175,203.206 C272.364,203.392 272.407,203.46 272.69,203.567 C273.285,203.793 274.084,203.546 274.425,202.906 C274.591,202.595 274.586,202.383 274.561,202.049 z M267.798,202.173 C267.751,202.477 267.705,202.6 267.82,202.943 C268.091,203.752 269.111,203.964 269.727,203.645 C270.044,203.48 270.082,203.39 270.27,203.137 z M274.743,205.524 C274.647,205.655 274.483,205.802 274.252,205.967 C274.163,206.028 274.058,206.098 273.947,206.158 L273.939,206.966 C274.401,206.488 274.669,206.011 274.743,205.524 z M267.813,205.568 C267.884,206.032 268.077,206.315 268.32,206.662 C268.446,206.818 268.587,206.966 268.751,207.114 L268.736,206.254 C268.264,205.987 268.524,206.151 267.967,205.737 z M273.195,206.488 C272.622,206.688 271.982,206.784 271.275,206.784 C270.612,206.784 270.002,206.697 269.451,206.523 L268.922,207.252 C269.638,207.75 270.443,207.863 271.26,207.886 C272.265,207.886 273.069,207.643 273.686,207.174 z" fill="#294270"/>
    <path d="M149.377,70 C149.765,72.357 149.853,74.76 149.86,77.154 C150.359,76.972 150.94,76.868 151.565,76.868 C152.317,76.868 153.009,77.016 153.56,77.276 C154.193,74.654 154.944,72.284 155.741,70.296 C155.972,72.527 155.972,75.271 155.733,78.292 C155.6,83.814 159.746,80.923 161.324,76.989 C161.748,75.948 163.051,74.316 164.569,74.515 C172.921,75.661 175.824,86.106 174.804,94.259 C174.767,94.546 174.723,94.667 174.671,94.685 C173.569,89.137 171.083,85.359 169.147,85.924 C167.212,86.479 166.512,91.038 167.443,96.508 C167.443,96.56 167.435,96.578 167.42,96.56 C166.758,95.805 166.118,95.301 165.5,94.997 C164.435,94.329 163.356,94.033 162.351,94.216 C160.296,94.589 159.076,96.873 158.949,99.998 C158.934,100.042 158.912,100.094 158.897,100.146 C158.852,100.259 158.823,99.92 158.785,99.807 C155.22,89.588 151.267,112.076 145.275,108.256 C144.687,107.882 144.314,107.691 144.166,107.691 C143.86,107.691 143.607,108.151 143.406,109.072 C143.28,109.657 143.002,110 142.484,110 C141.385,109.688 140.711,108.277 140.131,107.257 C140.652,107.587 141.091,107.752 141.441,107.752 C141.903,107.752 142.23,107.361 142.424,106.562 C142.573,105.972 142.878,104.426 143.607,104.426 C143.823,104.426 144.084,104.618 144.374,104.991 C146.563,107.326 148.185,105.26 147.992,102.16 C147.739,98.036 145.2,93.434 140.823,98.045 C140.689,98.184 140.414,98.705 140.421,98.487 C140.652,92.436 135.695,91.411 131.846,95.275 C132.159,87.504 126.821,88.312 125.199,91.689 C125.132,91.828 125.02,91.811 125.02,91.802 C124.559,85.75 132.092,76.191 137.168,76.347 C138.866,76.408 140.191,77.962 140.652,78.7 C141.106,79.438 142.32,81.904 143.332,82.069 C144.337,82.225 146.153,82.182 146.883,80.202 C147.069,79.707 147.233,79.143 147.381,78.57 C147.751,75.965 148.386,73.435 149.083,70.929 z M154.498,81.791 L152.175,83.206 C152.364,83.392 152.407,83.46 152.69,83.567 C153.285,83.793 154.084,83.546 154.425,82.906 C154.591,82.595 154.586,82.383 154.561,82.049 z M147.798,82.173 C147.751,82.477 147.705,82.6 147.82,82.943 C148.091,83.752 149.111,83.964 149.727,83.645 C150.044,83.48 150.082,83.39 150.27,83.137 z M154.743,85.524 C154.647,85.655 154.483,85.802 154.252,85.967 C154.163,86.028 154.058,86.098 153.947,86.158 L153.939,86.966 C154.401,86.488 154.669,86.011 154.743,85.524 z M147.813,85.568 C147.884,86.032 148.077,86.315 148.32,86.662 C148.446,86.818 148.587,86.966 148.751,87.114 L148.736,86.254 C148.264,85.987 148.524,86.151 147.967,85.737 z M153.195,86.488 C152.622,86.688 151.982,86.784 151.275,86.784 C150.612,86.784 150.002,86.697 149.451,86.523 L148.922,87.252 C149.638,87.75 150.443,87.863 151.26,87.886 C152.265,87.886 153.069,87.643 153.686,87.174 z" fill="#737370"/>
    <path d="M509.377,190 C509.765,192.357 509.853,194.76 509.86,197.154 C510.359,196.972 510.94,196.868 511.565,196.868 C512.317,196.868 513.009,197.016 513.56,197.276 C514.193,194.654 514.944,192.284 515.741,190.296 C515.972,192.527 515.972,195.271 515.733,198.292 C515.6,203.814 519.746,200.923 521.324,196.989 C521.748,195.948 523.051,194.316 524.569,194.515 C532.921,195.661 535.824,206.106 534.804,214.259 C534.767,214.546 534.723,214.667 534.671,214.685 C533.569,209.137 531.083,205.359 529.147,205.924 C527.212,206.479 526.512,211.038 527.443,216.508 C527.443,216.56 527.435,216.578 527.42,216.56 C526.758,215.805 526.118,215.301 525.5,214.997 C524.435,214.329 523.356,214.033 522.351,214.216 C520.296,214.589 519.076,216.873 518.949,219.998 C518.934,220.042 518.912,220.094 518.897,220.146 C518.852,220.259 518.823,219.92 518.785,219.807 C515.22,209.588 511.267,232.076 505.275,228.256 C504.687,227.882 504.314,227.691 504.166,227.691 C503.86,227.691 503.607,228.151 503.406,229.072 C503.28,229.657 503.002,230 502.484,230 C501.385,229.688 500.711,228.277 500.131,227.257 C500.652,227.587 501.091,227.752 501.441,227.752 C501.903,227.752 502.23,227.361 502.424,226.562 C502.573,225.972 502.878,224.426 503.607,224.426 C503.823,224.426 504.084,224.618 504.374,224.991 C506.563,227.326 508.185,225.26 507.992,222.16 C507.739,218.036 505.2,213.434 500.823,218.045 C500.689,218.184 500.414,218.705 500.421,218.487 C500.652,212.436 495.695,211.411 491.846,215.275 C492.159,207.504 486.821,208.312 485.199,211.689 C485.132,211.828 485.02,211.811 485.02,211.802 C484.559,205.75 492.092,196.191 497.168,196.347 C498.866,196.408 500.191,197.962 500.652,198.7 C501.106,199.438 502.32,201.904 503.332,202.069 C504.337,202.225 506.153,202.182 506.883,200.202 C507.069,199.707 507.233,199.143 507.381,198.57 C507.751,195.965 508.386,193.435 509.083,190.929 z M514.498,201.791 L512.175,203.206 C512.364,203.392 512.407,203.46 512.69,203.567 C513.285,203.793 514.084,203.546 514.425,202.906 C514.591,202.595 514.586,202.383 514.561,202.049 z M507.798,202.173 C507.751,202.477 507.705,202.6 507.82,202.943 C508.091,203.752 509.111,203.964 509.727,203.645 C510.044,203.48 510.082,203.39 510.27,203.137 z M514.743,205.524 C514.647,205.655 514.483,205.802 514.252,205.967 C514.163,206.028 514.058,206.098 513.947,206.158 L513.939,206.966 C514.401,206.488 514.669,206.011 514.743,205.524 z M507.813,205.568 C507.884,206.032 508.077,206.315 508.32,206.662 C508.446,206.818 508.587,206.966 508.751,207.114 L508.736,206.254 C508.264,205.987 508.524,206.151 507.967,205.737 z M513.195,206.488 C512.622,206.688 511.982,206.784 511.275,206.784 C510.612,206.784 510.002,206.697 509.451,206.523 L508.922,207.252 C509.638,207.75 510.443,207.863 511.26,207.886 C512.265,207.886 513.069,207.643 513.686,207.174 z" fill="#737370"/>
    <path d="M870.5,90.5 L1050.5,90.5" fill-opacity="0" stroke="#F0801A" stroke-width="4"/>
    <path d="M750.5,210.5 L870.5,210.5" fill-opacity="0" stroke="#F0801A" stroke-width="4"/>
    <path d="M1050.5,90.5 L1050.5,210.5" fill-opacity="0" stroke="#F0801A" stroke-width="4"/>
    <path d="M870.5,90.5 L870.5,210.5" fill-opacity="0" stroke="#F0801A" stroke-width="4"/>
    <path d="M750.5,90.5 L750.5,210.5" fill-opacity="0" stroke="#F0801A" stroke-width="4"/>
    <path d="M990.5,210.5 L1050.5,210.5" fill-opacity="0" stroke="#F0801A" stroke-width="4"/>
    <path d="M749.377,70 C749.765,72.357 749.853,74.76 749.86,77.154 C750.359,76.972 750.94,76.868 751.565,76.868 C752.317,76.868 753.009,77.016 753.56,77.276 C754.193,74.654 754.944,72.284 755.741,70.296 C755.972,72.527 755.972,75.271 755.733,78.292 C755.6,83.814 759.746,80.923 761.324,76.989 C761.748,75.948 763.051,74.316 764.569,74.515 C772.921,75.661 775.824,86.106 774.804,94.259 C774.767,94.546 774.723,94.667 774.671,94.685 C773.569,89.137 771.083,85.359 769.147,85.924 C767.212,86.479 766.512,91.038 767.443,96.508 C767.443,96.56 767.435,96.578 767.42,96.56 C766.758,95.805 766.118,95.301 765.5,94.997 C764.435,94.329 763.356,94.033 762.351,94.216 C760.296,94.589 759.076,96.873 758.949,99.998 C758.934,100.042 758.912,100.094 758.897,100.146 C758.852,100.259 758.823,99.92 758.785,99.807 C755.22,89.588 751.267,112.076 745.275,108.256 C744.687,107.882 744.314,107.691 744.166,107.691 C743.86,107.691 743.607,108.151 743.406,109.072 C743.28,109.657 743.002,110 742.484,110 C741.385,109.688 740.711,108.277 740.131,107.257 C740.652,107.587 741.091,107.752 741.441,107.752 C741.903,107.752 742.23,107.361 742.424,106.562 C742.573,105.972 742.878,104.426 743.607,104.426 C743.823,104.426 744.084,104.618 744.374,104.991 C746.563,107.326 748.185,105.26 747.992,102.16 C747.739,98.036 745.2,93.434 740.823,98.045 C740.689,98.184 740.414,98.705 740.422,98.487 C740.652,92.436 735.695,91.411 731.846,95.275 C732.159,87.504 726.821,88.312 725.199,91.689 C725.132,91.828 725.02,91.811 725.02,91.802 C724.559,85.75 732.092,76.191 737.168,76.347 C738.866,76.408 740.191,77.962 740.652,78.7 C741.106,79.438 742.32,81.904 743.332,82.069 C744.337,82.225 746.153,82.182 746.883,80.202 C747.069,79.707 747.233,79.143 747.381,78.57 C747.751,75.965 748.386,73.435 749.083,70.929 z M754.498,81.791 L752.175,83.206 C752.364,83.392 752.407,83.46 752.69,83.567 C753.285,83.793 754.084,83.546 754.425,82.906 C754.591,82.595 754.586,82.383 754.561,82.049 z M747.798,82.173 C747.751,82.477 747.705,82.6 747.82,82.943 C748.091,83.752 749.111,83.964 749.727,83.645 C750.044,83.48 750.082,83.39 750.27,83.137 z M754.743,85.524 C754.647,85.655 754.483,85.802 754.252,85.967 C754.163,86.028 754.058,86.098 753.947,86.158 L753.939,86.966 C754.401,86.488 754.669,86.011 754.743,85.524 z M747.813,85.568 C747.884,86.032 748.077,86.315 748.32,86.662 C748.446,86.818 748.587,86.966 748.751,87.114 L748.736,86.254 C748.264,85.987 748.524,86.151 747.967,85.737 z M753.195,86.488 C752.622,86.688 751.982,86.784 751.275,86.784 C750.612,86.784 750.002,86.697 749.451,86.523 L748.922,87.252 C749.638,87.75 750.443,87.863 751.26,87.886 C752.265,87.886 753.069,87.643 753.686,87.174 z" fill="#737370"/>
    <path d="M989.377,190 C989.765,192.357 989.853,194.76 989.86,197.154 C990.359,196.972 990.94,196.868 991.565,196.868 C992.317,196.868 993.009,197.016 993.56,197.276 C994.193,194.654 994.944,192.284 995.741,190.296 C995.972,192.527 995.972,195.271 995.733,198.292 C995.6,203.814 999.746,200.923 1001.324,196.989 C1001.748,195.948 1003.051,194.316 1004.569,194.515 C1012.921,195.661 1015.824,206.106 1014.804,214.259 C1014.767,214.546 1014.723,214.667 1014.671,214.685 C1013.569,209.137 1011.083,205.359 1009.147,205.924 C1007.212,206.479 1006.512,211.038 1007.443,216.508 C1007.443,216.56 1007.435,216.578 1007.42,216.56 C1006.758,215.805 1006.118,215.301 1005.5,214.997 C1004.435,214.329 1003.356,214.033 1002.351,214.216 C1000.296,214.589 999.076,216.873 998.949,219.998 C998.934,220.042 998.912,220.094 998.897,220.146 C998.852,220.259 998.823,219.92 998.785,219.807 C995.22,209.588 991.267,232.076 985.275,228.256 C984.687,227.882 984.314,227.691 984.166,227.691 C983.86,227.691 983.607,228.151 983.406,229.072 C983.28,229.657 983.002,230 982.484,230 C981.385,229.688 980.711,228.277 980.131,227.257 C980.652,227.587 981.091,227.752 981.441,227.752 C981.903,227.752 982.23,227.361 982.424,226.562 C982.573,225.972 982.878,224.426 983.607,224.426 C983.823,224.426 984.084,224.618 984.374,224.991 C986.563,227.326 988.185,225.26 987.992,222.16 C987.739,218.036 985.2,213.434 980.823,218.045 C980.689,218.184 980.414,218.705 980.422,218.487 C980.652,212.436 975.695,211.411 971.846,215.275 C972.159,207.504 966.821,208.312 965.199,211.689 C965.132,211.828 965.02,211.811 965.02,211.802 C964.559,205.75 972.092,196.191 977.168,196.347 C978.866,196.408 980.191,197.962 980.652,198.7 C981.106,199.438 982.32,201.904 983.332,202.069 C984.337,202.225 986.153,202.182 986.883,200.202 C987.069,199.707 987.233,199.143 987.381,198.57 C987.751,195.965 988.386,193.435 989.083,190.929 z M994.498,201.791 L992.175,203.206 C992.364,203.392 992.407,203.46 992.69,203.567 C993.285,203.793 994.084,203.546 994.425,202.906 C994.591,202.595 994.586,202.383 994.561,202.049 z M987.798,202.173 C987.751,202.477 987.705,202.6 987.82,202.943 C988.091,203.752 989.111,203.964 989.727,203.645 C990.044,203.48 990.082,203.39 990.27,203.137 z M994.743,205.524 C994.647,205.655 994.483,205.802 994.252,205.967 C994.163,206.028 994.058,206.098 993.947,206.158 L993.939,206.966 C994.401,206.488 994.669,206.011 994.743,205.524 z M987.813,205.568 C987.884,206.032 988.077,206.315 988.32,206.662 C988.446,206.818 988.587,206.966 988.751,207.114 L988.736,206.254 C988.264,205.987 988.524,206.151 987.967,205.737 z M993.195,206.488 C992.622,206.688 991.982,206.784 991.275,206.784 C990.612,206.784 990.002,206.697 989.451,206.523 L988.922,207.252 C989.638,207.75 990.443,207.863 991.26,207.886 C992.265,207.886 993.069,207.643 993.686,207.174 z" fill="#294270"/>
    <path d="M1049.377,190 C1049.765,192.357 1049.853,194.76 1049.86,197.154 C1050.359,196.972 1050.94,196.868 1051.565,196.868 C1052.317,196.868 1053.009,197.016 1053.56,197.276 C1054.193,194.654 1054.944,192.284 1055.741,190.296 C1055.972,192.527 1055.972,195.271 1055.733,198.292 C1055.6,203.814 1059.746,200.923 1061.324,196.989 C1061.748,195.948 1063.051,194.316 1064.569,194.515 C1072.921,195.661 1075.824,206.106 1074.804,214.259 C1074.767,214.546 1074.723,214.667 1074.671,214.685 C1073.569,209.137 1071.083,205.359 1069.147,205.924 C1067.212,206.479 1066.512,211.038 1067.443,216.508 C1067.443,216.56 1067.435,216.578 1067.42,216.56 C1066.758,215.805 1066.118,215.301 1065.5,214.997 C1064.435,214.329 1063.356,214.033 1062.351,214.216 C1060.297,214.589 1059.076,216.873 1058.949,219.998 C1058.934,220.042 1058.912,220.094 1058.897,220.146 C1058.852,220.259 1058.823,219.92 1058.785,219.807 C1055.22,209.588 1051.267,232.076 1045.275,228.256 C1044.687,227.882 1044.314,227.691 1044.166,227.691 C1043.86,227.691 1043.607,228.151 1043.406,229.072 C1043.28,229.657 1043.002,230 1042.484,230 C1041.385,229.688 1040.711,228.277 1040.131,227.257 C1040.652,227.587 1041.091,227.752 1041.441,227.752 C1041.903,227.752 1042.23,227.361 1042.424,226.562 C1042.573,225.972 1042.878,224.426 1043.607,224.426 C1043.823,224.426 1044.084,224.618 1044.374,224.991 C1046.563,227.326 1048.185,225.26 1047.992,222.16 C1047.739,218.036 1045.2,213.434 1040.823,218.045 C1040.689,218.184 1040.414,218.705 1040.422,218.487 C1040.652,212.436 1035.695,211.411 1031.846,215.275 C1032.159,207.504 1026.821,208.312 1025.199,211.689 C1025.132,211.828 1025.02,211.811 1025.02,211.802 C1024.559,205.75 1032.092,196.191 1037.168,196.347 C1038.866,196.408 1040.191,197.962 1040.652,198.7 C1041.106,199.438 1042.32,201.904 1043.332,202.069 C1044.337,202.225 1046.153,202.182 1046.883,200.202 C1047.069,199.707 1047.233,199.143 1047.381,198.57 C1047.751,195.965 1048.386,193.435 1049.083,190.929 z M1054.498,201.791 L1052.175,203.206 C1052.364,203.392 1052.407,203.46 1052.69,203.567 C1053.285,203.793 1054.084,203.546 1054.425,202.906 C1054.591,202.595 1054.586,202.383 1054.561,202.049 z M1047.798,202.173 C1047.751,202.477 1047.705,202.6 1047.82,202.943 C1048.091,203.752 1049.111,203.964 1049.727,203.645 C1050.044,203.48 1050.082,203.39 1050.27,203.137 z M1054.743,205.524 C1054.647,205.655 1054.483,205.802 1054.252,205.967 C1054.163,206.028 1054.058,206.098 1053.947,206.158 L1053.939,206.966 C1054.401,206.488 1054.669,206.011 1054.743,205.524 z M1047.813,205.568 C1047.884,206.032 1048.077,206.315 1048.32,206.662 C1048.446,206.818 1048.587,206.966 1048.751,207.114 L1048.736,206.254 C1048.264,205.987 1048.524,206.151 1047.967,205.737 z M1053.195,206.488 C1052.622,206.688 1051.982,206.784 1051.275,206.784 C1050.612,206.784 1050.002,206.697 1049.451,206.523 L1048.922,207.252 C1049.638,207.75 1050.443,207.863 1051.26,207.886 C1052.265,207.886 1053.069,207.643 1053.686,207.174 z" fill="#737370"/>
    <path d="M1049.377,70 C1049.765,72.357 1049.853,74.76 1049.86,77.154 C1050.359,76.972 1050.94,76.868 1051.565,76.868 C1052.317,76.868 1053.009,77.016 1053.56,77.276 C1054.193,74.654 1054.944,72.284 1055.741,70.296 C1055.972,72.527 1055.972,75.271 1055.733,78.292 C1055.6,83.814 1059.746,80.923 1061.324,76.989 C1061.748,75.948 1063.051,74.316 1064.569,74.515 C1072.921,75.661 1075.824,86.106 1074.804,94.259 C1074.767,94.546 1074.723,94.667 1074.671,94.685 C1073.569,89.137 1071.083,85.359 1069.147,85.924 C1067.212,86.479 1066.512,91.038 1067.443,96.508 C1067.443,96.56 1067.435,96.578 1067.42,96.56 C1066.758,95.805 1066.118,95.301 1065.5,94.997 C1064.435,94.329 1063.356,94.033 1062.351,94.216 C1060.297,94.589 1059.076,96.873 1058.949,99.998 C1058.934,100.042 1058.912,100.094 1058.897,100.146 C1058.852,100.259 1058.823,99.92 1058.785,99.807 C1055.22,89.588 1051.267,112.076 1045.275,108.256 C1044.687,107.882 1044.314,107.691 1044.166,107.691 C1043.86,107.691 1043.607,108.151 1043.406,109.072 C1043.28,109.657 1043.002,110 1042.484,110 C1041.385,109.688 1040.711,108.277 1040.131,107.257 C1040.652,107.587 1041.091,107.752 1041.441,107.752 C1041.903,107.752 1042.23,107.361 1042.424,106.562 C1042.573,105.972 1042.878,104.426 1043.607,104.426 C1043.823,104.426 1044.084,104.618 1044.374,104.991 C1046.563,107.326 1048.185,105.26 1047.992,102.16 C1047.739,98.036 1045.2,93.434 1040.823,98.045 C1040.689,98.184 1040.414,98.705 1040.422,98.487 C1040.652,92.436 1035.695,91.411 1031.846,95.275 C1032.159,87.504 1026.821,88.312 1025.199,91.689 C1025.132,91.828 1025.02,91.811 1025.02,91.802 C1024.559,85.75 1032.092,76.191 1037.168,76.347 C1038.866,76.408 1040.191,77.962 1040.652,78.7 C1041.106,79.438 1042.32,81.904 1043.332,82.069 C1044.337,82.225 1046.153,82.182 1046.883,80.202 C1047.069,79.707 1047.233,79.143 1047.381,78.57 C1047.751,75.965 1048.386,73.435 1049.083,70.929 z M1054.498,81.791 L1052.175,83.206 C1052.364,83.392 1052.407,83.46 1052.69,83.567 C1053.285,83.793 1054.084,83.546 1054.425,82.906 C1054.591,82.595 1054.586,82.383 1054.561,82.049 z M1047.798,82.173 C1047.751,82.477 1047.705,82.6 1047.82,82.943 C1048.091,83.752 1049.111,83.964 1049.727,83.645 C1050.044,83.48 1050.082,83.39 1050.27,83.137 z M1054.743,85.524 C1054.647,85.655 1054.483,85.802 1054.252,85.967 C1054.163,86.028 1054.058,86.098 1053.947,86.158 L1053.939,86.966 C1054.401,86.488 1054.669,86.011 1054.743,85.524 z M1047.813,85.568 C1047.884,86.032 1048.077,86.315 1048.32,86.662 C1048.446,86.818 1048.587,86.966 1048.751,87.114 L1048.736,86.254 C1048.264,85.987 1048.524,86.151 1047.967,85.737 z M1053.195,86.488 C1052.622,86.688 1051.982,86.784 1051.275,86.784 C1050.612,86.784 1050.002,86.697 1049.451,86.523 L1048.922,87.252 C1049.638,87.75 1050.443,87.863 1051.26,87.886 C1052.265,87.886 1053.069,87.643 1053.686,87.174 z" fill="#737370"/>
    <path d="M869.377,70 C869.765,72.357 869.853,74.76 869.86,77.154 C870.359,76.972 870.94,76.868 871.565,76.868 C872.317,76.868 873.009,77.016 873.56,77.276 C874.193,74.654 874.944,72.284 875.741,70.296 C875.972,72.527 875.972,75.271 875.733,78.292 C875.6,83.814 879.746,80.923 881.324,76.989 C881.748,75.948 883.051,74.316 884.569,74.515 C892.921,75.661 895.824,86.106 894.804,94.259 C894.767,94.546 894.723,94.667 894.671,94.685 C893.569,89.137 891.083,85.359 889.147,85.924 C887.212,86.479 886.512,91.038 887.443,96.508 C887.443,96.56 887.435,96.578 887.42,96.56 C886.758,95.805 886.118,95.301 885.5,94.997 C884.435,94.329 883.356,94.033 882.351,94.216 C880.296,94.589 879.076,96.873 878.949,99.998 C878.934,100.042 878.912,100.094 878.897,100.146 C878.852,100.259 878.823,99.92 878.785,99.807 C875.22,89.588 871.267,112.076 865.275,108.256 C864.687,107.882 864.314,107.691 864.166,107.691 C863.86,107.691 863.607,108.151 863.406,109.072 C863.28,109.657 863.002,110 862.484,110 C861.385,109.688 860.711,108.277 860.131,107.257 C860.652,107.587 861.091,107.752 861.441,107.752 C861.903,107.752 862.23,107.361 862.424,106.562 C862.573,105.972 862.878,104.426 863.607,104.426 C863.823,104.426 864.084,104.618 864.374,104.991 C866.563,107.326 868.185,105.26 867.992,102.16 C867.739,98.036 865.2,93.434 860.823,98.045 C860.689,98.184 860.414,98.705 860.422,98.487 C860.652,92.436 855.695,91.411 851.846,95.275 C852.159,87.504 846.821,88.312 845.199,91.689 C845.132,91.828 845.02,91.811 845.02,91.802 C844.559,85.75 852.092,76.191 857.168,76.347 C858.866,76.408 860.191,77.962 860.652,78.7 C861.106,79.438 862.32,81.904 863.332,82.069 C864.337,82.225 866.153,82.182 866.883,80.202 C867.069,79.707 867.233,79.143 867.381,78.57 C867.751,75.965 868.386,73.435 869.083,70.929 z M874.498,81.791 L872.175,83.206 C872.364,83.392 872.407,83.46 872.69,83.567 C873.285,83.793 874.084,83.546 874.425,82.906 C874.591,82.595 874.586,82.383 874.561,82.049 z M867.798,82.173 C867.751,82.477 867.705,82.6 867.82,82.943 C868.091,83.752 869.111,83.964 869.727,83.645 C870.044,83.48 870.082,83.39 870.27,83.137 z M874.743,85.524 C874.647,85.655 874.483,85.802 874.252,85.967 C874.163,86.028 874.058,86.098 873.947,86.158 L873.939,86.966 C874.401,86.488 874.669,86.011 874.743,85.524 z M867.813,85.568 C867.884,86.032 868.077,86.315 868.32,86.662 C868.446,86.818 868.587,86.966 868.751,87.114 L868.736,86.254 C868.264,85.987 868.524,86.151 867.967,85.737 z M873.195,86.488 C872.622,86.688 871.982,86.784 871.275,86.784 C870.612,86.784 870.002,86.697 869.451,86.523 L868.922,87.252 C869.638,87.75 870.443,87.863 871.26,87.886 C872.265,87.886 873.069,87.643 873.686,87.174 z" fill="#737370"/>
    <path d="M749.377,190 C749.765,192.357 749.853,194.76 749.86,197.154 C750.359,196.972 750.94,196.868 751.565,196.868 C752.317,196.868 753.009,197.016 753.56,197.276 C754.193,194.654 754.944,192.284 755.741,190.296 C755.972,192.527 755.972,195.271 755.733,198.292 C755.6,203.814 759.746,200.923 761.324,196.989 C761.748,195.948 763.051,194.316 764.569,194.515 C772.921,195.661 775.824,206.106 774.804,214.259 C774.767,214.546 774.723,214.667 774.671,214.685 C773.569,209.137 771.083,205.359 769.147,205.924 C767.212,206.479 766.512,211.038 767.443,216.508 C767.443,216.56 767.435,216.578 767.42,216.56 C766.758,215.805 766.118,215.301 765.5,214.997 C764.435,214.329 763.356,214.033 762.351,214.216 C760.296,214.589 759.076,216.873 758.949,219.998 C758.934,220.042 758.912,220.094 758.897,220.146 C758.852,220.259 758.823,219.92 758.785,219.807 C755.22,209.588 751.267,232.076 745.275,228.256 C744.687,227.882 744.314,227.691 744.166,227.691 C743.86,227.691 743.607,228.151 743.406,229.072 C743.28,229.657 743.002,230 742.484,230 C741.385,229.688 740.711,228.277 740.131,227.257 C740.652,227.587 741.091,227.752 741.441,227.752 C741.903,227.752 742.23,227.361 742.424,226.562 C742.573,225.972 742.878,224.426 743.607,224.426 C743.823,224.426 744.084,224.618 744.374,224.991 C746.563,227.326 748.185,225.26 747.992,222.16 C747.739,218.036 745.2,213.434 740.823,218.045 C740.689,218.184 740.414,218.705 740.422,218.487 C740.652,212.436 735.695,211.411 731.846,215.275 C732.159,207.504 726.821,208.312 725.199,211.689 C725.132,211.828 725.02,211.811 725.02,211.802 C724.559,205.75 732.092,196.191 737.168,196.347 C738.866,196.408 740.191,197.962 740.652,198.7 C741.106,199.438 742.32,201.904 743.332,202.069 C744.337,202.225 746.153,202.182 746.883,200.202 C747.069,199.707 747.233,199.143 747.381,198.57 C747.751,195.965 748.386,193.435 749.083,190.929 z M754.498,201.791 L752.175,203.206 C752.364,203.392 752.407,203.46 752.69,203.567 C753.285,203.793 754.084,203.546 754.425,202.906 C754.591,202.595 754.586,202.383 754.561,202.049 z M747.798,202.173 C747.751,202.477 747.705,202.6 747.82,202.943 C748.091,203.752 749.111,203.964 749.727,203.645 C750.044,203.48 750.082,203.39 750.27,203.137 z M754.743,205.524 C754.647,205.655 754.483,205.802 754.252,205.967 C754.163,206.028 754.058,206.098 753.947,206.158 L753.939,206.966 C754.401,206.488 754.669,206.011 754.743,205.524 z M747.813,205.568 C747.884,206.032 748.077,206.315 748.32,206.662 C748.446,206.818 748.587,206.966 748.751,207.114 L748.736,206.254 C748.264,205.987 748.524,206.151 747.967,205.737 z M753.195,206.488 C752.622,206.688 751.982,206.784 751.275,206.784 C750.612,206.784 750.002,206.697 749.451,206.523 L748.922,207.252 C749.638,207.75 750.443,207.863 751.26,207.886 C752.265,207.886 753.069,207.643 753.686,207.174 z" fill="#737370"/>
    <path d="M869.377,190 C869.765,192.357 869.853,194.76 869.86,197.154 C870.359,196.972 870.94,196.868 871.565,196.868 C872.317,196.868 873.009,197.016 873.56,197.276 C874.193,194.654 874.944,192.284 875.741,190.296 C875.972,192.527 875.972,195.271 875.733,198.292 C875.6,203.814 879.746,200.923 881.324,196.989 C881.748,195.948 883.051,194.316 884.569,194.515 C892.921,195.661 895.824,206.106 894.804,214.259 C894.767,214.546 894.723,214.667 894.671,214.685 C893.569,209.137 891.083,205.359 889.147,205.924 C887.212,206.479 886.512,211.038 887.443,216.508 C887.443,216.56 887.435,216.578 887.42,216.56 C886.758,215.805 886.118,215.301 885.5,214.997 C884.435,214.329 883.356,214.033 882.351,214.216 C880.296,214.589 879.076,216.873 878.949,219.998 C878.934,220.042 878.912,220.094 878.897,220.146 C878.852,220.259 878.823,219.92 878.785,219.807 C875.22,209.588 871.267,232.076 865.275,228.256 C864.687,227.882 864.314,227.691 864.166,227.691 C863.86,227.691 863.607,228.151 863.406,229.072 C863.28,229.657 863.002,230 862.484,230 C861.385,229.688 860.711,228.277 860.131,227.257 C860.652,227.587 861.091,227.752 861.441,227.752 C861.903,227.752 862.23,227.361 862.424,226.562 C862.573,225.972 862.878,224.426 863.607,224.426 C863.823,224.426 864.084,224.618 864.374,224.991 C866.563,227.326 868.185,225.26 867.992,222.16 C867.739,218.036 865.2,213.434 860.823,218.045 C860.689,218.184 860.414,218.705 860.422,218.487 C860.652,212.436 855.695,211.411 851.846,215.275 C852.159,207.504 846.821,208.312 845.199,211.689 C845.132,211.828 845.02,211.811 845.02,211.802 C844.559,205.75 852.092,196.191 857.168,196.347 C858.866,196.408 860.191,197.962 860.652,198.7 C861.106,199.438 862.32,201.904 863.332,202.069 C864.337,202.225 866.153,202.182 866.883,200.202 C867.069,199.707 867.233,199.143 867.381,198.57 C867.751,195.965 868.386,193.435 869.083,190.929 z M874.498,201.791 L872.175,203.206 C872.364,203.392 872.407,203.46 872.69,203.567 C873.285,203.793 874.084,203.546 874.425,202.906 C874.591,202.595 874.586,202.383 874.561,202.049 z M867.798,202.173 C867.751,202.477 867.705,202.6 867.82,202.943 C868.091,203.752 869.111,203.964 869.727,203.645 C870.044,203.48 870.082,203.39 870.27,203.137 z M874.743,205.524 C874.647,205.655 874.483,205.802 874.252,205.967 C874.163,206.028 874.058,206.098 873.947,206.158 L873.939,206.966 C874.401,206.488 874.669,206.011 874.743,205.524 z M867.813,205.568 C867.884,206.032 868.077,206.315 868.32,206.662 C868.446,206.818 868.587,206.966 868.751,207.114 L868.736,206.254 C868.264,205.987 868.524,206.151 867.967,205.737 z M873.195,206.488 C872.622,206.688 871.982,206.784 871.275,206.784 C870.612,206.784 870.002,206.697 869.451,206.523 L868.922,207.252 C869.638,207.75 870.443,207.863 871.26,207.886 C872.265,207.886 873.069,207.643 873.686,207.174 z" fill="#737370"/>
    <text transform="matrix(1, 0, 0, 1, 217.456, 368.5)">
      <tspan x="-66.196" y="-78.5" font-family="Verdana-Bold" font-size="30" fill="#294270">Input:[</tspan>
      <tspan x="-66.196" y="-42.5" font-family="Verdana-Bold" font-size="30" fill="#294270">"B--",</tspan>
      <tspan x="-66.196" y="-6.5" font-family="Verdana-Bold" font-size="30" fill="#294270">"---",</tspan>
      <tspan x="-66.196" y="29.5" font-family="Verdana-Bold" font-size="30" fill="#294270">"--L"]</tspan>
      <tspan x="-66.196" y="65.5" font-family="Verdana-Bold" font-size="30" fill="#294270">Result: </tspan>
      <tspan x="-66.196" y="101.5" font-family="Verdana-Bold" font-size="30" fill="#294270">2.83 </tspan>
    </text>
    <text transform="matrix(1, 0, 0, 1, 517.708, 368.5)">
      <tspan x="-66.196" y="-78.5" font-family="Verdana-Bold" font-size="30" fill="#294270">Input:[</tspan>
      <tspan x="-66.196" y="-42.5" font-family="Verdana-Bold" font-size="30" fill="#294270">"B-B",</tspan>
      <tspan x="-66.196" y="-6.5" font-family="Verdana-Bold" font-size="30" fill="#294270">"BW-",</tspan>
      <tspan x="-66.196" y="29.5" font-family="Verdana-Bold" font-size="30" fill="#294270">"-BL"]</tspan>
      <tspan x="-66.196" y="65.5" font-family="Verdana-Bold" font-size="30" fill="#294270">Result: </tspan>
      <tspan x="-66.196" y="101.5" font-family="Verdana-Bold" font-size="30" fill="#294270">4 </tspan>
    </text>
    <text transform="matrix(1, 0, 0, 1, 930, 368.5)">
      <tspan x="-120" y="-78.5" font-family="Verdana-Bold" font-size="30" fill="#294270">Input:[</tspan>
      <tspan x="-120" y="-42.5" font-family="Verdana-Bold" font-size="30" fill="#294270">"BWB--B",</tspan>
      <tspan x="-120" y="-6.5" font-family="Verdana-Bold" font-size="30" fill="#294270">"-W-WW-",</tspan>
      <tspan x="-120" y="29.5" font-family="Verdana-Bold" font-size="30" fill="#294270">"B-BWLB"]</tspan>
      <tspan x="-120" y="65.5" font-family="Verdana-Bold" font-size="30" fill="#294270">Result:</tspan>
      <tspan x="-120" y="101.5" font-family="Verdana-Bold" font-size="30" fill="#294270">12 </tspan>
    </text>
    <g>
      <path d="M360.5,600.5 L420.5,600.5 L420.5,660.5 L360.5,660.5 z" fill="#294270"/>
      <path d="M360.5,600.5 L420.5,600.5 L420.5,660.5 L360.5,660.5 z" fill-opacity="0" stroke="#294270" stroke-width="4"/>
    </g>
    <g>
      <path d="M300.5,600.5 L360.5,600.5 L360.5,660.5 L300.5,660.5 z" fill="#8FC7ED"/>
      <path d="M300.5,600.5 L360.5,600.5 L360.5,660.5 L300.5,660.5 z" fill-opacity="0" stroke="#294270" stroke-width="4"/>
    </g>
    <g>
      <path d="M360.5,540.5 L420.5,540.5 L420.5,600.5 L360.5,600.5 z" fill="#8FC7ED"/>
      <path d="M360.5,540.5 L420.5,540.5 L420.5,600.5 L360.5,600.5 z" fill-opacity="0" stroke="#294270" stroke-width="4"/>
    </g>
    <g>
      <path d="M420.5,540.5 L480.5,540.5 L480.5,600.5 L420.5,600.5 z" fill="#8FC7ED"/>
      <path d="M420.5,540.5 L480.5,540.5 L480.5,600.5 L420.5,600.5 z" fill-opacity="0" stroke="#294270" stroke-width="4"/>
    </g>
    <g>
      <path d="M300.5,540.5 L360.5,540.5 L360.5,600.5 L300.5,600.5 z" fill="#65A1CF"/>
      <path d="M300.5,540.5 L360.5,540.5 L360.5,600.5 L300.5,600.5 z" fill-opacity="0" stroke="#294270" stroke-width="4"/>
    </g>
    <g>
      <path d="M300.5,660.5 L360.5,660.5 L360.5,720.5 L300.5,720.5 z" fill="#8FC7ED"/>
      <path d="M300.5,660.5 L360.5,660.5 L360.5,720.5 L300.5,720.5 z" fill-opacity="0" stroke="#294270" stroke-width="4"/>
    </g>
    <g>
      <path d="M360.5,660.5 L420.5,660.5 L420.5,720.5 L360.5,720.5 z" fill="#294270"/>
      <path d="M360.5,660.5 L420.5,660.5 L420.5,720.5 L360.5,720.5 z" fill-opacity="0" stroke="#294270" stroke-width="4"/>
    </g>
    <g>
      <path d="M420.5,660.5 L480.5,660.5 L480.5,720.5 L420.5,720.5 z" fill="#8FC7ED"/>
      <path d="M420.5,660.5 L480.5,660.5 L480.5,720.5 L420.5,720.5 z" fill-opacity="0" stroke="#294270" stroke-width="4"/>
    </g>
    <g>
      <path d="M420.5,600.5 L480.5,600.5 L480.5,660.5 L420.5,660.5 z" fill="#294270"/>
      <path d="M420.5,600.5 L480.5,600.5 L480.5,660.5 L420.5,660.5 z" fill-opacity="0" stroke="#294270" stroke-width="4"/>
    </g>
    <g>
      <path d="M540.5,600.5 L600.5,600.5 L600.5,660.5 L540.5,660.5 z" fill="#8FC7ED"/>
      <path d="M540.5,600.5 L600.5,600.5 L600.5,660.5 L540.5,660.5 z" fill-opacity="0" stroke="#294270" stroke-width="4"/>
    </g>
    <g>
      <path d="M480.5,600.5 L540.5,600.5 L540.5,660.5 L480.5,660.5 z" fill="#294270"/>
      <path d="M480.5,600.5 L540.5,600.5 L540.5,660.5 L480.5,660.5 z" fill-opacity="0" stroke="#294270" stroke-width="4"/>
    </g>
    <g>
      <path d="M540.5,540.5 L600.5,540.5 L600.5,600.5 L540.5,600.5 z" fill="#8FC7ED"/>
      <path d="M540.5,540.5 L600.5,540.5 L600.5,600.5 L540.5,600.5 z" fill-opacity="0" stroke="#294270" stroke-width="4"/>
    </g>
    <g>
      <path d="M600.5,540.5 L660.5,540.5 L660.5,600.5 L600.5,600.5 z" fill="#8FC7ED"/>
      <path d="M600.5,540.5 L660.5,540.5 L660.5,600.5 L600.5,600.5 z" fill-opacity="0" stroke="#294270" stroke-width="4"/>
    </g>
    <g>
      <path d="M480.5,540.5 L540.5,540.5 L540.5,600.5 L480.5,600.5 z" fill="#8FC7ED"/>
      <path d="M480.5,540.5 L540.5,540.5 L540.5,600.5 L480.5,600.5 z" fill-opacity="0" stroke="#294270" stroke-width="4"/>
    </g>
    <g>
      <path d="M480.5,660.5 L540.5,660.5 L540.5,720.5 L480.5,720.5 z" fill="#8FC7ED"/>
      <path d="M480.5,660.5 L540.5,660.5 L540.5,720.5 L480.5,720.5 z" fill-opacity="0" stroke="#294270" stroke-width="4"/>
    </g>
    <g>
      <path d="M540.5,660.5 L600.5,660.5 L600.5,720.5 L540.5,720.5 z" fill="#8FC7ED"/>
      <path d="M540.5,660.5 L600.5,660.5 L600.5,720.5 L540.5,720.5 z" fill-opacity="0" stroke="#294270" stroke-width="4"/>
    </g>
    <g>
      <path d="M600.5,660.5 L660.5,660.5 L660.5,720.5 L600.5,720.5 z" fill="#8FC7ED"/>
      <path d="M600.5,660.5 L660.5,660.5 L660.5,720.5 L600.5,720.5 z" fill-opacity="0" stroke="#294270" stroke-width="4"/>
    </g>
    <g>
      <path d="M600.5,600.5 L660.5,600.5 L660.5,660.5 L600.5,660.5 z" fill="#8FC7ED"/>
      <path d="M600.5,600.5 L660.5,600.5 L660.5,660.5 L600.5,660.5 z" fill-opacity="0" stroke="#294270" stroke-width="4"/>
    </g>
    <g>
      <path d="M360.5,780.5 L420.5,780.5 L420.5,840.5 L360.5,840.5 z" fill="#294270"/>
      <path d="M360.5,780.5 L420.5,780.5 L420.5,840.5 L360.5,840.5 z" fill-opacity="0" stroke="#294270" stroke-width="4"/>
    </g>
    <g>
      <path d="M300.5,780.5 L360.5,780.5 L360.5,840.5 L300.5,840.5 z" fill="#8FC7ED"/>
      <path d="M300.5,780.5 L360.5,780.5 L360.5,840.5 L300.5,840.5 z" fill-opacity="0" stroke="#294270" stroke-width="4"/>
    </g>
    <g>
      <path d="M360.5,720.5 L420.5,720.5 L420.5,780.5 L360.5,780.5 z" fill="#294270"/>
      <path d="M360.5,720.5 L420.5,720.5 L420.5,780.5 L360.5,780.5 z" fill-opacity="0" stroke="#294270" stroke-width="4"/>
    </g>
    <g>
      <path d="M420.5,720.5 L480.5,720.5 L480.5,780.5 L420.5,780.5 z" fill="#8FC7ED"/>
      <path d="M420.5,720.5 L480.5,720.5 L480.5,780.5 L420.5,780.5 z" fill-opacity="0" stroke="#294270" stroke-width="4"/>
    </g>
    <g>
      <path d="M300.5,720.5 L360.5,720.5 L360.5,780.5 L300.5,780.5 z" fill="#8FC7ED"/>
      <path d="M300.5,720.5 L360.5,720.5 L360.5,780.5 L300.5,780.5 z" fill-opacity="0" stroke="#294270" stroke-width="4"/>
    </g>
    <g>
      <path d="M300.5,840.5 L360.5,840.5 L360.5,900.5 L300.5,900.5 z" fill="#8FC7ED"/>
      <path d="M300.5,840.5 L360.5,840.5 L360.5,900.5 L300.5,900.5 z" fill-opacity="0" stroke="#294270" stroke-width="4"/>
    </g>
    <g>
      <path d="M360.5,840.5 L420.5,840.5 L420.5,900.5 L360.5,900.5 z" fill="#8FC7ED"/>
      <path d="M360.5,840.5 L420.5,840.5 L420.5,900.5 L360.5,900.5 z" fill-opacity="0" stroke="#294270" stroke-width="4"/>
    </g>
    <g>
      <path d="M420.5,840.5 L480.5,840.5 L480.5,900.5 L420.5,900.5 z" fill="#8FC7ED"/>
      <path d="M420.5,840.5 L480.5,840.5 L480.5,900.5 L420.5,900.5 z" fill-opacity="0" stroke="#294270" stroke-width="4"/>
    </g>
    <g>
      <path d="M420.5,780.5 L480.5,780.5 L480.5,840.5 L420.5,840.5 z" fill="#294270"/>
      <path d="M420.5,780.5 L480.5,780.5 L480.5,840.5 L420.5,840.5 z" fill-opacity="0" stroke="#294270" stroke-width="4"/>
    </g>
    <g>
      <path d="M540.5,780.5 L600.5,780.5 L600.5,840.5 L540.5,840.5 z" fill="#8FC7ED"/>
      <path d="M540.5,780.5 L600.5,780.5 L600.5,840.5 L540.5,840.5 z" fill-opacity="0" stroke="#294270" stroke-width="4"/>
    </g>
    <g>
      <path d="M480.5,780.5 L540.5,780.5 L540.5,840.5 L480.5,840.5 z" fill="#294270"/>
      <path d="M480.5,780.5 L540.5,780.5 L540.5,840.5 L480.5,840.5 z" fill-opacity="0" stroke="#294270" stroke-width="4"/>
    </g>
    <g>
      <path d="M540.5,720.5 L600.5,720.5 L600.5,780.5 L540.5,780.5 z" fill="#8FC7ED"/>
      <path d="M540.5,720.5 L600.5,720.5 L600.5,780.5 L540.5,780.5 z" fill-opacity="0" stroke="#294270" stroke-width="4"/>
    </g>
    <g>
      <path d="M600.5,720.5 L660.5,720.5 L660.5,780.5 L600.5,780.5 z" fill="#8FC7ED"/>
      <path d="M600.5,720.5 L660.5,720.5 L660.5,780.5 L600.5,780.5 z" fill-opacity="0" stroke="#294270" stroke-width="4"/>
    </g>
    <g>
      <path d="M480.5,720.5 L540.5,720.5 L540.5,780.5 L480.5,780.5 z" fill="#8FC7ED"/>
      <path d="M480.5,720.5 L540.5,720.5 L540.5,780.5 L480.5,780.5 z" fill-opacity="0" stroke="#294270" stroke-width="4"/>
    </g>
    <g>
      <path d="M480.5,840.5 L540.5,840.5 L540.5,900.5 L480.5,900.5 z" fill="#294270"/>
      <path d="M480.5,840.5 L540.5,840.5 L540.5,900.5 L480.5,900.5 z" fill-opacity="0" stroke="#294270" stroke-width="4"/>
    </g>
    <g>
      <path d="M540.5,840.5 L600.5,840.5 L600.5,900.5 L540.5,900.5 z" fill="#8FC7ED"/>
      <path d="M540.5,840.5 L600.5,840.5 L600.5,900.5 L540.5,900.5 z" fill-opacity="0" stroke="#294270" stroke-width="4"/>
    </g>
    <g>
      <path d="M600.5,840.5 L660.5,840.5 L660.5,900.5 L600.5,900.5 z" fill="#8FC7ED"/>
      <path d="M600.5,840.5 L660.5,840.5 L660.5,900.5 L600.5,900.5 z" fill-opacity="0" stroke="#294270" stroke-width="4"/>
    </g>
    <g>
      <path d="M600.5,780.5 L660.5,780.5 L660.5,840.5 L600.5,840.5 z" fill="#8FC7ED"/>
      <path d="M600.5,780.5 L660.5,780.5 L660.5,840.5 L600.5,840.5 z" fill-opacity="0" stroke="#294270" stroke-width="4"/>
    </g>
    <path d="M329.377,850 C329.765,852.357 329.853,854.76 329.86,857.154 C330.359,856.972 330.94,856.868 331.565,856.868 C332.317,856.868 333.009,857.016 333.56,857.276 C334.193,854.654 334.944,852.284 335.741,850.296 C335.972,852.527 335.972,855.271 335.733,858.292 C335.6,863.814 339.746,860.923 341.324,856.99 C341.748,855.948 343.051,854.316 344.569,854.515 C352.921,855.661 355.824,866.106 354.804,874.259 C354.767,874.546 354.723,874.667 354.671,874.685 C353.569,869.137 351.083,865.359 349.147,865.924 C347.212,866.479 346.512,871.038 347.443,876.508 C347.443,876.56 347.435,876.578 347.42,876.56 C346.758,875.805 346.118,875.301 345.5,874.997 C344.435,874.329 343.356,874.033 342.351,874.216 C340.296,874.589 339.076,876.873 338.949,879.998 C338.934,880.042 338.912,880.094 338.897,880.146 C338.852,880.259 338.823,879.92 338.785,879.807 C335.22,869.588 331.267,892.076 325.275,888.256 C324.687,887.882 324.314,887.691 324.166,887.691 C323.86,887.691 323.607,888.151 323.406,889.072 C323.28,889.656 323.002,890 322.484,890 C321.385,889.688 320.711,888.277 320.131,887.257 C320.652,887.587 321.091,887.752 321.441,887.752 C321.903,887.752 322.23,887.361 322.424,886.562 C322.573,885.972 322.878,884.426 323.607,884.426 C323.823,884.426 324.084,884.617 324.374,884.991 C326.563,887.326 328.185,885.26 327.992,882.16 C327.739,878.036 325.2,873.434 320.823,878.045 C320.689,878.184 320.414,878.705 320.421,878.487 C320.652,872.436 315.695,871.411 311.846,875.275 C312.159,867.504 306.821,868.312 305.199,871.689 C305.132,871.828 305.02,871.811 305.02,871.802 C304.559,865.75 312.092,856.191 317.168,856.347 C318.866,856.408 320.191,857.962 320.652,858.7 C321.106,859.438 322.32,861.904 323.332,862.069 C324.337,862.225 326.153,862.182 326.883,860.202 C327.069,859.707 327.233,859.143 327.381,858.57 C327.751,855.965 328.386,853.435 329.083,850.929 z M334.498,861.791 L332.175,863.206 C332.364,863.392 332.407,863.46 332.69,863.567 C333.285,863.793 334.084,863.546 334.425,862.906 C334.591,862.595 334.586,862.383 334.561,862.049 z M327.798,862.173 C327.751,862.477 327.705,862.6 327.82,862.943 C328.091,863.752 329.111,863.964 329.727,863.645 C330.044,863.48 330.082,863.39 330.27,863.137 z M334.743,865.524 C334.647,865.655 334.483,865.802 334.252,865.967 C334.163,866.028 334.058,866.098 333.947,866.158 L333.939,866.966 C334.401,866.488 334.669,866.011 334.743,865.524 z M327.813,865.568 C327.884,866.032 328.077,866.315 328.32,866.662 C328.446,866.818 328.587,866.966 328.751,867.114 L328.736,866.254 C328.264,865.987 328.524,866.151 327.967,865.737 z M333.195,866.488 C332.622,866.688 331.982,866.784 331.275,866.784 C330.612,866.784 330.002,866.697 329.451,866.523 L328.922,867.252 C329.638,867.75 330.443,867.863 331.26,867.886 C332.265,867.886 333.069,867.643 333.686,867.174 z" fill="#737370"/>
    <path d="M449.377,850 C449.765,852.357 449.853,854.76 449.86,857.154 C450.359,856.972 450.94,856.868 451.565,856.868 C452.317,856.868 453.009,857.016 453.56,857.276 C454.193,854.654 454.944,852.284 455.741,850.296 C455.972,852.527 455.972,855.271 455.733,858.292 C455.6,863.814 459.746,860.923 461.324,856.99 C461.748,855.948 463.051,854.316 464.569,854.515 C472.921,855.661 475.824,866.106 474.804,874.259 C474.767,874.546 474.723,874.667 474.671,874.685 C473.569,869.137 471.083,865.359 469.147,865.924 C467.212,866.479 466.512,871.038 467.443,876.508 C467.443,876.56 467.435,876.578 467.42,876.56 C466.758,875.805 466.118,875.301 465.5,874.997 C464.435,874.329 463.356,874.033 462.351,874.216 C460.296,874.589 459.076,876.873 458.949,879.998 C458.934,880.042 458.912,880.094 458.897,880.146 C458.852,880.259 458.823,879.92 458.785,879.807 C455.22,869.588 451.267,892.076 445.275,888.256 C444.687,887.882 444.314,887.691 444.166,887.691 C443.86,887.691 443.607,888.151 443.406,889.072 C443.28,889.656 443.002,890 442.484,890 C441.385,889.688 440.711,888.277 440.131,887.257 C440.652,887.587 441.091,887.752 441.441,887.752 C441.903,887.752 442.23,887.361 442.424,886.562 C442.573,885.972 442.878,884.426 443.607,884.426 C443.823,884.426 444.084,884.617 444.374,884.991 C446.563,887.326 448.185,885.26 447.992,882.16 C447.739,878.036 445.2,873.434 440.823,878.045 C440.689,878.184 440.414,878.705 440.421,878.487 C440.652,872.436 435.695,871.411 431.846,875.275 C432.159,867.504 426.821,868.312 425.199,871.689 C425.132,871.828 425.02,871.811 425.02,871.802 C424.559,865.75 432.092,856.191 437.168,856.347 C438.866,856.408 440.191,857.962 440.652,858.7 C441.106,859.438 442.32,861.904 443.332,862.069 C444.337,862.225 446.153,862.182 446.883,860.202 C447.069,859.707 447.233,859.143 447.381,858.57 C447.751,855.965 448.386,853.435 449.083,850.929 z M454.498,861.791 L452.175,863.206 C452.364,863.392 452.407,863.46 452.69,863.567 C453.285,863.793 454.084,863.546 454.425,862.906 C454.591,862.595 454.586,862.383 454.561,862.049 z M447.798,862.173 C447.751,862.477 447.705,862.6 447.82,862.943 C448.091,863.752 449.111,863.964 449.727,863.645 C450.044,863.48 450.082,863.39 450.27,863.137 z M454.743,865.524 C454.647,865.655 454.483,865.802 454.252,865.967 C454.163,866.028 454.058,866.098 453.947,866.158 L453.939,866.966 C454.401,866.488 454.669,866.011 454.743,865.524 z M447.813,865.568 C447.884,866.032 448.077,866.315 448.32,866.662 C448.446,866.818 448.587,866.966 448.751,867.114 L448.736,866.254 C448.264,865.987 448.524,866.151 447.967,865.737 z M453.195,866.488 C452.622,866.688 451.982,866.784 451.275,866.784 C450.612,866.784 450.002,866.697 449.451,866.523 L448.922,867.252 C449.638,867.75 450.443,867.863 451.26,867.886 C452.265,867.886 453.069,867.643 453.686,867.174 z" fill="#737370"/>
    <path d="M569.377,850 C569.765,852.357 569.853,854.76 569.86,857.154 C570.359,856.972 570.94,856.868 571.565,856.868 C572.317,856.868 573.009,857.016 573.56,857.276 C574.193,854.654 574.944,852.284 575.741,850.296 C575.972,852.527 575.972,855.271 575.733,858.292 C575.6,863.814 579.746,860.923 581.324,856.99 C581.748,855.948 583.051,854.316 584.569,854.515 C592.921,855.661 595.824,866.106 594.804,874.259 C594.767,874.546 594.723,874.667 594.671,874.685 C593.569,869.137 591.083,865.359 589.147,865.924 C587.212,866.479 586.512,871.038 587.443,876.508 C587.443,876.56 587.435,876.578 587.42,876.56 C586.758,875.805 586.118,875.301 585.5,874.997 C584.435,874.329 583.356,874.033 582.351,874.216 C580.296,874.589 579.076,876.873 578.949,879.998 C578.934,880.042 578.912,880.094 578.897,880.146 C578.852,880.259 578.823,879.92 578.785,879.807 C575.22,869.588 571.267,892.076 565.275,888.256 C564.687,887.882 564.314,887.691 564.166,887.691 C563.86,887.691 563.607,888.151 563.406,889.072 C563.28,889.656 563.002,890 562.484,890 C561.385,889.688 560.711,888.277 560.131,887.257 C560.652,887.587 561.091,887.752 561.441,887.752 C561.903,887.752 562.23,887.361 562.424,886.562 C562.573,885.972 562.878,884.426 563.607,884.426 C563.823,884.426 564.084,884.617 564.374,884.991 C566.563,887.326 568.185,885.26 567.992,882.16 C567.739,878.036 565.2,873.434 560.823,878.045 C560.689,878.184 560.414,878.705 560.422,878.487 C560.652,872.436 555.695,871.411 551.846,875.275 C552.159,867.504 546.821,868.312 545.199,871.689 C545.132,871.828 545.02,871.811 545.02,871.802 C544.559,865.75 552.092,856.191 557.168,856.347 C558.866,856.408 560.191,857.962 560.652,858.7 C561.106,859.438 562.32,861.904 563.332,862.069 C564.337,862.225 566.153,862.182 566.883,860.202 C567.069,859.707 567.233,859.143 567.381,858.57 C567.751,855.965 568.386,853.435 569.083,850.929 z M574.498,861.791 L572.175,863.206 C572.364,863.392 572.407,863.46 572.69,863.567 C573.285,863.793 574.084,863.546 574.425,862.906 C574.591,862.595 574.586,862.383 574.561,862.049 z M567.798,862.173 C567.751,862.477 567.705,862.6 567.82,862.943 C568.091,863.752 569.111,863.964 569.727,863.645 C570.044,863.48 570.082,863.39 570.27,863.137 z M574.743,865.524 C574.647,865.655 574.483,865.802 574.252,865.967 C574.163,866.028 574.058,866.098 573.947,866.158 L573.939,866.966 C574.401,866.488 574.669,866.011 574.743,865.524 z M567.813,865.568 C567.884,866.032 568.077,866.315 568.32,866.662 C568.446,866.818 568.587,866.966 568.751,867.114 L568.736,866.254 C568.264,865.987 568.524,866.151 567.967,865.737 z M573.195,866.488 C572.622,866.688 571.982,866.784 571.275,866.784 C570.612,866.784 570.002,866.697 569.451,866.523 L568.922,867.252 C569.638,867.75 570.443,867.863 571.26,867.886 C572.265,867.886 573.069,867.643 573.686,867.174 z" fill="#737370"/>
    <path d="M629.377,790 C629.765,792.357 629.853,794.76 629.86,797.154 C630.359,796.972 630.94,796.868 631.565,796.868 C632.317,796.868 633.009,797.016 633.56,797.276 C634.193,794.654 634.944,792.284 635.741,790.296 C635.972,792.527 635.972,795.271 635.733,798.292 C635.6,803.814 639.746,800.923 641.324,796.99 C641.748,795.948 643.051,794.316 644.569,794.515 C652.921,795.661 655.824,806.106 654.804,814.259 C654.767,814.546 654.723,814.667 654.671,814.685 C653.569,809.137 651.083,805.359 649.147,805.924 C647.212,806.479 646.512,811.038 647.443,816.508 C647.443,816.56 647.435,816.578 647.42,816.56 C646.758,815.805 646.118,815.301 645.5,814.997 C644.435,814.329 643.356,814.033 642.351,814.216 C640.296,814.589 639.076,816.873 638.949,819.998 C638.934,820.042 638.912,820.094 638.897,820.146 C638.852,820.259 638.823,819.92 638.785,819.807 C635.22,809.588 631.267,832.076 625.275,828.256 C624.687,827.882 624.314,827.691 624.166,827.691 C623.86,827.691 623.607,828.151 623.406,829.072 C623.28,829.656 623.002,830 622.484,830 C621.385,829.688 620.711,828.277 620.131,827.257 C620.652,827.587 621.091,827.752 621.441,827.752 C621.903,827.752 622.23,827.361 622.424,826.562 C622.573,825.972 622.878,824.426 623.607,824.426 C623.823,824.426 624.084,824.617 624.374,824.991 C626.563,827.326 628.185,825.26 627.992,822.16 C627.739,818.036 625.2,813.434 620.823,818.045 C620.689,818.184 620.414,818.705 620.422,818.487 C620.652,812.436 615.695,811.411 611.846,815.275 C612.159,807.504 606.821,808.312 605.199,811.689 C605.132,811.828 605.02,811.811 605.02,811.802 C604.559,805.75 612.092,796.191 617.168,796.347 C618.866,796.408 620.191,797.962 620.652,798.7 C621.106,799.438 622.32,801.904 623.332,802.069 C624.337,802.225 626.153,802.182 626.883,800.202 C627.069,799.707 627.233,799.143 627.381,798.57 C627.751,795.965 628.386,793.435 629.083,790.929 z M634.498,801.791 L632.175,803.206 C632.364,803.392 632.407,803.46 632.69,803.567 C633.285,803.793 634.084,803.546 634.425,802.906 C634.591,802.595 634.586,802.383 634.561,802.049 z M627.798,802.173 C627.751,802.477 627.705,802.6 627.82,802.943 C628.091,803.752 629.111,803.964 629.727,803.645 C630.044,803.48 630.082,803.39 630.27,803.137 z M634.743,805.524 C634.647,805.655 634.483,805.802 634.252,805.967 C634.163,806.028 634.058,806.098 633.947,806.158 L633.939,806.966 C634.401,806.488 634.669,806.011 634.743,805.524 z M627.813,805.568 C627.884,806.032 628.077,806.315 628.32,806.662 C628.446,806.818 628.587,806.966 628.751,807.114 L628.736,806.254 C628.264,805.987 628.524,806.151 627.967,805.737 z M633.195,806.488 C632.622,806.688 631.982,806.784 631.275,806.784 C630.612,806.784 630.002,806.697 629.451,806.523 L628.922,807.252 C629.638,807.75 630.443,807.863 631.26,807.886 C632.265,807.886 633.069,807.643 633.686,807.174 z" fill="#737370"/>
    <path d="M629.377,610 C629.765,612.357 629.853,614.76 629.86,617.154 C630.359,616.972 630.94,616.868 631.565,616.868 C632.317,616.868 633.009,617.016 633.56,617.276 C634.193,614.654 634.944,612.284 635.741,610.296 C635.972,612.527 635.972,615.271 635.733,618.292 C635.6,623.814 639.746,620.923 641.324,616.99 C641.748,615.948 643.051,614.316 644.569,614.515 C652.921,615.661 655.824,626.106 654.804,634.259 C654.767,634.546 654.723,634.667 654.671,634.685 C653.569,629.137 651.083,625.359 649.147,625.924 C647.212,626.479 646.512,631.038 647.443,636.508 C647.443,636.56 647.435,636.578 647.42,636.56 C646.758,635.805 646.118,635.301 645.5,634.997 C644.435,634.329 643.356,634.033 642.351,634.216 C640.296,634.589 639.076,636.873 638.949,639.998 C638.934,640.042 638.912,640.094 638.897,640.146 C638.852,640.259 638.823,639.92 638.785,639.807 C635.22,629.588 631.267,652.076 625.275,648.256 C624.687,647.882 624.314,647.691 624.166,647.691 C623.86,647.691 623.607,648.151 623.406,649.072 C623.28,649.656 623.002,650 622.484,650 C621.385,649.688 620.711,648.277 620.131,647.257 C620.652,647.587 621.091,647.752 621.441,647.752 C621.903,647.752 622.23,647.361 622.424,646.562 C622.573,645.972 622.878,644.426 623.607,644.426 C623.823,644.426 624.084,644.617 624.374,644.991 C626.563,647.326 628.185,645.26 627.992,642.16 C627.739,638.036 625.2,633.434 620.823,638.045 C620.689,638.184 620.414,638.705 620.422,638.487 C620.652,632.436 615.695,631.411 611.846,635.275 C612.159,627.504 606.821,628.312 605.199,631.689 C605.132,631.828 605.02,631.811 605.02,631.802 C604.559,625.75 612.092,616.191 617.168,616.347 C618.866,616.408 620.191,617.962 620.652,618.7 C621.106,619.438 622.32,621.904 623.332,622.069 C624.337,622.225 626.153,622.182 626.883,620.202 C627.069,619.707 627.233,619.143 627.381,618.57 C627.751,615.965 628.386,613.435 629.083,610.929 z M634.498,621.791 L632.175,623.206 C632.364,623.392 632.407,623.46 632.69,623.567 C633.285,623.793 634.084,623.546 634.425,622.906 C634.591,622.595 634.586,622.383 634.561,622.049 z M627.798,622.173 C627.751,622.477 627.705,622.6 627.82,622.943 C628.091,623.752 629.111,623.964 629.727,623.645 C630.044,623.48 630.082,623.39 630.27,623.137 z M634.743,625.524 C634.647,625.655 634.483,625.802 634.252,625.967 C634.163,626.028 634.058,626.098 633.947,626.158 L633.939,626.966 C634.401,626.488 634.669,626.011 634.743,625.524 z M627.813,625.568 C627.884,626.032 628.077,626.315 628.32,626.662 C628.446,626.818 628.587,626.966 628.751,627.114 L628.736,626.254 C628.264,625.987 628.524,626.151 627.967,625.737 z M633.195,626.488 C632.622,626.688 631.982,626.784 631.275,626.784 C630.612,626.784 630.002,626.697 629.451,626.523 L628.922,627.252 C629.638,627.75 630.443,627.863 631.26,627.886 C632.265,627.886 633.069,627.643 633.686,627.174 z" fill="#737370"/>
    <path d="M509.377,730 C509.765,732.357 509.853,734.76 509.86,737.154 C510.359,736.972 510.94,736.868 511.565,736.868 C512.317,736.868 513.009,737.016 513.56,737.276 C514.193,734.654 514.944,732.284 515.741,730.296 C515.972,732.527 515.972,735.271 515.733,738.292 C515.6,743.814 519.746,740.923 521.324,736.99 C521.748,735.948 523.051,734.316 524.569,734.515 C532.921,735.661 535.824,746.106 534.804,754.259 C534.767,754.546 534.723,754.667 534.671,754.685 C533.569,749.137 531.083,745.359 529.147,745.924 C527.212,746.479 526.512,751.038 527.443,756.508 C527.443,756.56 527.435,756.578 527.42,756.56 C526.758,755.805 526.118,755.301 525.5,754.997 C524.435,754.329 523.356,754.033 522.351,754.216 C520.296,754.589 519.076,756.873 518.949,759.998 C518.934,760.042 518.912,760.094 518.897,760.146 C518.852,760.259 518.823,759.92 518.785,759.807 C515.22,749.588 511.267,772.076 505.275,768.256 C504.687,767.882 504.314,767.691 504.166,767.691 C503.86,767.691 503.607,768.151 503.406,769.072 C503.28,769.656 503.002,770 502.484,770 C501.385,769.688 500.711,768.277 500.131,767.257 C500.652,767.587 501.091,767.752 501.441,767.752 C501.903,767.752 502.23,767.361 502.424,766.562 C502.573,765.972 502.878,764.426 503.607,764.426 C503.823,764.426 504.084,764.617 504.374,764.991 C506.563,767.326 508.185,765.26 507.992,762.16 C507.739,758.036 505.2,753.434 500.823,758.045 C500.689,758.184 500.414,758.705 500.421,758.487 C500.652,752.436 495.695,751.411 491.846,755.275 C492.159,747.504 486.821,748.312 485.199,751.689 C485.132,751.828 485.02,751.811 485.02,751.802 C484.559,745.75 492.092,736.191 497.168,736.347 C498.866,736.408 500.191,737.962 500.652,738.7 C501.106,739.438 502.32,741.904 503.332,742.069 C504.337,742.225 506.153,742.182 506.883,740.202 C507.069,739.707 507.233,739.143 507.381,738.57 C507.751,735.965 508.386,733.435 509.083,730.929 z M514.498,741.791 L512.175,743.206 C512.364,743.392 512.407,743.46 512.69,743.567 C513.285,743.793 514.084,743.546 514.425,742.906 C514.591,742.595 514.586,742.383 514.561,742.049 z M507.798,742.173 C507.751,742.477 507.705,742.6 507.82,742.943 C508.091,743.752 509.111,743.964 509.727,743.645 C510.044,743.48 510.082,743.39 510.27,743.137 z M514.743,745.524 C514.647,745.655 514.483,745.802 514.252,745.967 C514.163,746.028 514.058,746.098 513.947,746.158 L513.939,746.966 C514.401,746.488 514.669,746.011 514.743,745.524 z M507.813,745.568 C507.884,746.032 508.077,746.315 508.32,746.662 C508.446,746.818 508.587,746.966 508.751,747.114 L508.736,746.254 C508.264,745.987 508.524,746.151 507.967,745.737 z M513.195,746.488 C512.622,746.688 511.982,746.784 511.275,746.784 C510.612,746.784 510.002,746.697 509.451,746.523 L508.922,747.252 C509.638,747.75 510.443,747.863 511.26,747.886 C512.265,747.886 513.069,747.643 513.686,747.174 z" fill="#737370"/>
    <path d="M331.76,570.5 L570.5,570.5" fill-opacity="0" stroke="#F0801A" stroke-width="4"/>
    <path d="M570.5,570.5 L632.011,690.5" fill-opacity="0" stroke="#F0801A" stroke-width="4"/>
    <path d="M632.011,690.5 L450.5,690.5" fill-opacity="0" stroke="#F0801A" stroke-width="4"/>
    <path d="M329.377,550 C329.765,552.357 329.853,554.76 329.86,557.154 C330.359,556.972 330.94,556.868 331.565,556.868 C332.317,556.868 333.009,557.016 333.56,557.276 C334.193,554.654 334.944,552.284 335.741,550.296 C335.972,552.527 335.972,555.271 335.733,558.292 C335.6,563.814 339.746,560.923 341.324,556.99 C341.748,555.948 343.051,554.316 344.569,554.515 C352.921,555.661 355.824,566.106 354.804,574.259 C354.767,574.546 354.723,574.667 354.671,574.685 C353.569,569.137 351.083,565.359 349.147,565.924 C347.212,566.479 346.512,571.038 347.443,576.508 C347.443,576.56 347.435,576.578 347.42,576.56 C346.758,575.805 346.118,575.301 345.5,574.997 C344.435,574.329 343.356,574.033 342.351,574.216 C340.296,574.589 339.076,576.873 338.949,579.998 C338.934,580.042 338.912,580.094 338.897,580.146 C338.852,580.259 338.823,579.92 338.785,579.807 C335.22,569.588 331.267,592.076 325.275,588.256 C324.687,587.882 324.314,587.691 324.166,587.691 C323.86,587.691 323.607,588.151 323.406,589.072 C323.28,589.656 323.002,590 322.484,590 C321.385,589.688 320.711,588.277 320.131,587.257 C320.652,587.587 321.091,587.752 321.441,587.752 C321.903,587.752 322.23,587.361 322.424,586.562 C322.573,585.972 322.878,584.426 323.607,584.426 C323.823,584.426 324.084,584.617 324.374,584.991 C326.563,587.326 328.185,585.26 327.992,582.16 C327.739,578.036 325.2,573.434 320.823,578.045 C320.689,578.184 320.414,578.705 320.421,578.487 C320.652,572.436 315.695,571.411 311.846,575.275 C312.159,567.504 306.821,568.312 305.199,571.689 C305.132,571.828 305.02,571.811 305.02,571.802 C304.559,565.75 312.092,556.191 317.168,556.347 C318.866,556.408 320.191,557.962 320.652,558.7 C321.106,559.438 322.32,561.904 323.332,562.069 C324.337,562.225 326.153,562.182 326.883,560.202 C327.069,559.707 327.233,559.143 327.381,558.57 C327.751,555.965 328.386,553.435 329.083,550.929 z M334.498,561.791 L332.175,563.206 C332.364,563.392 332.407,563.46 332.69,563.567 C333.285,563.793 334.084,563.546 334.425,562.906 C334.591,562.595 334.586,562.383 334.561,562.049 z M327.798,562.173 C327.751,562.477 327.705,562.6 327.82,562.943 C328.091,563.752 329.111,563.964 329.727,563.645 C330.044,563.48 330.082,563.39 330.27,563.137 z M334.743,565.524 C334.647,565.655 334.483,565.802 334.252,565.967 C334.163,566.028 334.058,566.098 333.947,566.158 L333.939,566.966 C334.401,566.488 334.669,566.011 334.743,565.524 z M327.813,565.568 C327.884,566.032 328.077,566.315 328.32,566.662 C328.446,566.818 328.587,566.966 328.751,567.114 L328.736,566.254 C328.264,565.987 328.524,566.151 327.967,565.737 z M333.195,566.488 C332.622,566.688 331.982,566.784 331.275,566.784 C330.612,566.784 330.002,566.697 329.451,566.523 L328.922,567.252 C329.638,567.75 330.443,567.863 331.26,567.886 C332.265,567.886 333.069,567.643 333.686,567.174 z" fill="#737370"/>
    <path d="M449.377,670 C449.765,672.357 449.853,674.76 449.86,677.154 C450.359,676.972 450.94,676.868 451.565,676.868 C452.317,676.868 453.009,677.016 453.56,677.276 C454.193,674.654 454.944,672.284 455.741,670.296 C455.972,672.527 455.972,675.271 455.733,678.292 C455.6,683.814 459.746,680.923 461.324,676.99 C461.748,675.948 463.051,674.316 464.569,674.515 C472.921,675.661 475.824,686.106 474.804,694.259 C474.767,694.546 474.723,694.667 474.671,694.685 C473.569,689.137 471.083,685.359 469.147,685.924 C467.212,686.479 466.512,691.038 467.443,696.508 C467.443,696.56 467.435,696.578 467.42,696.56 C466.758,695.805 466.118,695.301 465.5,694.997 C464.435,694.329 463.356,694.033 462.351,694.216 C460.296,694.589 459.076,696.873 458.949,699.998 C458.934,700.042 458.912,700.094 458.897,700.146 C458.852,700.259 458.823,699.92 458.785,699.807 C455.22,689.588 451.267,712.076 445.275,708.256 C444.687,707.882 444.314,707.691 444.166,707.691 C443.86,707.691 443.607,708.151 443.406,709.072 C443.28,709.656 443.002,710 442.484,710 C441.385,709.688 440.711,708.277 440.131,707.257 C440.652,707.587 441.091,707.752 441.441,707.752 C441.903,707.752 442.23,707.361 442.424,706.562 C442.573,705.972 442.878,704.426 443.607,704.426 C443.823,704.426 444.084,704.617 444.374,704.991 C446.563,707.326 448.185,705.26 447.992,702.16 C447.739,698.036 445.2,693.434 440.823,698.045 C440.689,698.184 440.414,698.705 440.421,698.487 C440.652,692.436 435.695,691.411 431.846,695.275 C432.159,687.504 426.821,688.312 425.199,691.689 C425.132,691.828 425.02,691.811 425.02,691.802 C424.559,685.75 432.092,676.191 437.168,676.347 C438.866,676.408 440.191,677.962 440.652,678.7 C441.106,679.438 442.32,681.904 443.332,682.069 C444.337,682.225 446.153,682.182 446.883,680.202 C447.069,679.707 447.233,679.143 447.381,678.57 C447.751,675.965 448.386,673.435 449.083,670.929 z M454.498,681.791 L452.175,683.206 C452.364,683.392 452.407,683.46 452.69,683.567 C453.285,683.793 454.084,683.546 454.425,682.906 C454.591,682.595 454.586,682.383 454.561,682.049 z M447.798,682.173 C447.751,682.477 447.705,682.6 447.82,682.943 C448.091,683.752 449.111,683.964 449.727,683.645 C450.044,683.48 450.082,683.39 450.27,683.137 z M454.743,685.524 C454.647,685.655 454.483,685.802 454.252,685.967 C454.163,686.028 454.058,686.098 453.947,686.158 L453.939,686.966 C454.401,686.488 454.669,686.011 454.743,685.524 z M447.813,685.568 C447.884,686.032 448.077,686.315 448.32,686.662 C448.446,686.818 448.587,686.966 448.751,687.114 L448.736,686.254 C448.264,685.987 448.524,686.151 447.967,685.737 z M453.195,686.488 C452.622,686.688 451.982,686.784 451.275,686.784 C450.612,686.784 450.002,686.697 449.451,686.523 L448.922,687.252 C449.638,687.75 450.443,687.863 451.26,687.886 C452.265,687.886 453.069,687.643 453.686,687.174 z" fill="#294270"/>
    <path d="M569.377,550 C569.765,552.357 569.853,554.76 569.86,557.154 C570.359,556.972 570.94,556.868 571.565,556.868 C572.317,556.868 573.009,557.016 573.56,557.276 C574.193,554.654 574.944,552.284 575.741,550.296 C575.972,552.527 575.972,555.271 575.733,558.292 C575.6,563.814 579.746,560.923 581.324,556.99 C581.748,555.948 583.051,554.316 584.569,554.515 C592.921,555.661 595.824,566.106 594.804,574.259 C594.767,574.546 594.723,574.667 594.671,574.685 C593.569,569.137 591.083,565.359 589.147,565.924 C587.212,566.479 586.512,571.038 587.443,576.508 C587.443,576.56 587.435,576.578 587.42,576.56 C586.758,575.805 586.118,575.301 585.5,574.997 C584.435,574.329 583.356,574.033 582.351,574.216 C580.296,574.589 579.076,576.873 578.949,579.998 C578.934,580.042 578.912,580.094 578.897,580.146 C578.852,580.259 578.823,579.92 578.785,579.807 C575.22,569.588 571.267,592.076 565.275,588.256 C564.687,587.882 564.314,587.691 564.166,587.691 C563.86,587.691 563.607,588.151 563.406,589.072 C563.28,589.656 563.002,590 562.484,590 C561.385,589.688 560.711,588.277 560.131,587.257 C560.652,587.587 561.091,587.752 561.441,587.752 C561.903,587.752 562.23,587.361 562.424,586.562 C562.573,585.972 562.878,584.426 563.607,584.426 C563.823,584.426 564.084,584.617 564.374,584.991 C566.563,587.326 568.185,585.26 567.992,582.16 C567.739,578.036 565.2,573.434 560.823,578.045 C560.689,578.184 560.414,578.705 560.422,578.487 C560.652,572.436 555.695,571.411 551.846,575.275 C552.159,567.504 546.821,568.312 545.199,571.689 C545.132,571.828 545.02,571.811 545.02,571.802 C544.559,565.75 552.092,556.191 557.168,556.347 C558.866,556.408 560.191,557.962 560.652,558.7 C561.106,559.438 562.32,561.904 563.332,562.069 C564.337,562.225 566.153,562.182 566.883,560.202 C567.069,559.707 567.233,559.143 567.381,558.57 C567.751,555.965 568.386,553.435 569.083,550.929 z M574.498,561.791 L572.175,563.206 C572.364,563.392 572.407,563.46 572.69,563.567 C573.285,563.793 574.084,563.546 574.425,562.906 C574.591,562.595 574.586,562.383 574.561,562.049 z M567.798,562.173 C567.751,562.477 567.705,562.6 567.82,562.943 C568.091,563.752 569.111,563.964 569.727,563.645 C570.044,563.48 570.082,563.39 570.27,563.137 z M574.743,565.524 C574.647,565.655 574.483,565.802 574.252,565.967 C574.163,566.028 574.058,566.098 573.947,566.158 L573.939,566.966 C574.401,566.488 574.669,566.011 574.743,565.524 z M567.813,565.568 C567.884,566.032 568.077,566.315 568.32,566.662 C568.446,566.818 568.587,566.966 568.751,567.114 L568.736,566.254 C568.264,565.987 568.524,566.151 567.967,565.737 z M573.195,566.488 C572.622,566.688 571.982,566.784 571.275,566.784 C570.612,566.784 570.002,566.697 569.451,566.523 L568.922,567.252 C569.638,567.75 570.443,567.863 571.26,567.886 C572.265,567.886 573.069,567.643 573.686,567.174 z" fill="#737370"/>
    <path d="M629.377,670 C629.765,672.357 629.853,674.76 629.86,677.154 C630.359,676.972 630.94,676.868 631.565,676.868 C632.317,676.868 633.009,677.016 633.56,677.276 C634.193,674.654 634.944,672.284 635.741,670.296 C635.972,672.527 635.972,675.271 635.733,678.292 C635.6,683.814 639.746,680.923 641.324,676.99 C641.748,675.948 643.051,674.316 644.569,674.515 C652.921,675.661 655.824,686.106 654.804,694.259 C654.767,694.546 654.723,694.667 654.671,694.685 C653.569,689.137 651.083,685.359 649.147,685.924 C647.212,686.479 646.512,691.038 647.443,696.508 C647.443,696.56 647.435,696.578 647.42,696.56 C646.758,695.805 646.118,695.301 645.5,694.997 C644.435,694.329 643.356,694.033 642.351,694.216 C640.296,694.589 639.076,696.873 638.949,699.998 C638.934,700.042 638.912,700.094 638.897,700.146 C638.852,700.259 638.823,699.92 638.785,699.807 C635.22,689.588 631.267,712.076 625.275,708.256 C624.687,707.882 624.314,707.691 624.166,707.691 C623.86,707.691 623.607,708.151 623.406,709.072 C623.28,709.656 623.002,710 622.484,710 C621.385,709.688 620.711,708.277 620.131,707.257 C620.652,707.587 621.091,707.752 621.441,707.752 C621.903,707.752 622.23,707.361 622.424,706.562 C622.573,705.972 622.878,704.426 623.607,704.426 C623.823,704.426 624.084,704.617 624.374,704.991 C626.563,707.326 628.185,705.26 627.992,702.16 C627.739,698.036 625.2,693.434 620.823,698.045 C620.689,698.184 620.414,698.705 620.422,698.487 C620.652,692.436 615.695,691.411 611.846,695.275 C612.159,687.504 606.821,688.312 605.199,691.689 C605.132,691.828 605.02,691.811 605.02,691.802 C604.559,685.75 612.092,676.191 617.168,676.347 C618.866,676.408 620.191,677.962 620.652,678.7 C621.106,679.438 622.32,681.904 623.332,682.069 C624.337,682.225 626.153,682.182 626.883,680.202 C627.069,679.707 627.233,679.143 627.381,678.57 C627.751,675.965 628.386,673.435 629.083,670.929 z M634.498,681.791 L632.175,683.206 C632.364,683.392 632.407,683.46 632.69,683.567 C633.285,683.793 634.084,683.546 634.425,682.906 C634.591,682.595 634.586,682.383 634.561,682.049 z M627.798,682.173 C627.751,682.477 627.705,682.6 627.82,682.943 C628.091,683.752 629.111,683.964 629.727,683.645 C630.044,683.48 630.082,683.39 630.27,683.137 z M634.743,685.524 C634.647,685.655 634.483,685.802 634.252,685.967 C634.163,686.028 634.058,686.098 633.947,686.158 L633.939,686.966 C634.401,686.488 634.669,686.011 634.743,685.524 z M627.813,685.568 C627.884,686.032 628.077,686.315 628.32,686.662 C628.446,686.818 628.587,686.966 628.751,687.114 L628.736,686.254 C628.264,685.987 628.524,686.151 627.967,685.737 z M633.195,686.488 C632.622,686.688 631.982,686.784 631.275,686.784 C630.612,686.784 630.002,686.697 629.451,686.523 L628.922,687.252 C629.638,687.75 630.443,687.863 631.26,687.886 C632.265,687.886 633.069,687.643 633.686,687.174 z" fill="#737370"/>
    <text transform="matrix(1, 0, 0, 1, 840, 702.5)">
      <tspan x="-120" y="-132.5" font-family="Verdana-Bold" font-size="30" fill="#294270">Input:[</tspan>
      <tspan x="-120" y="-96.5" font-family="Verdana-Bold" font-size="30" fill="#294270">"B---B-",</tspan>
      <tspan x="-120" y="-60.5" font-family="Verdana-Bold" font-size="30" fill="#294270">"-WWW-B",</tspan>
      <tspan x="-120" y="-24.5" font-family="Verdana-Bold" font-size="30" fill="#294270">"-WL--B",</tspan>
      <tspan x="-120" y="11.5" font-family="Verdana-Bold" font-size="30" fill="#294270">"-W-B--",</tspan>
      <tspan x="-120" y="47.5" font-family="Verdana-Bold" font-size="30" fill="#294270">"-WWW-B",</tspan>
      <tspan x="-120" y="83.5" font-family="Verdana-Bold" font-size="30" fill="#294270">"B-BWB-",</tspan>
      <tspan x="57.29" y="83.5" font-family="Verdana-Bold" font-size="30" fill="#294270">]</tspan>
      <tspan x="-120" y="119.5" font-family="Verdana-Bold" font-size="30" fill="#294270">Result:</tspan>
      <tspan x="-120" y="155.5" font-family="Verdana-Bold" font-size="30" fill="#294270">12 </tspan>
    </text>
  </g>
  <defs/>
</svg>
