<?xml version="1.0" encoding="UTF-8"?>
<!DOCTYPE svg PUBLIC "-//W3C//DTD SVG 1.1//EN" "http://www.w3.org/Graphics/SVG/1.1/DTD/svg11.dtd">
<svg version="1.1" xmlns="http://www.w3.org/2000/svg" xmlns:xlink="http://www.w3.org/1999/xlink" x="0px" y="0px" width="128" height="128" viewBox="0, 0, 128, 128">
  <g id="Background">
    <rect x="0" y="0" width="128" height="128" fill="#000000" fill-opacity="0"/>
  </g>
  <g id="Background">
    <path d="M18.095,6 L109.907,6 C116.561,6 122,11.439 122,18.093 L122,109.907 C122,116.561 116.561,122 109.907,122 L18.095,122 C11.441,122 6,116.561 6,109.907 L6,18.093 C6,11.439 11.441,6 18.095,6" fill="#727272"/>
    <path d="M14.02,68.078 C13.111,57.826 27.99,41.631 38.019,41.896 C41.372,41.997 43.988,44.631 44.897,45.883 C45.798,47.13 48.19,51.309 50.19,51.586 C52.178,51.852 55.767,51.78 57.206,48.427 C57.57,47.586 57.896,46.632 58.192,45.659 C59.192,40.188 60.557,35.234 62.133,31.141 C62.777,34.552 63.116,38.672 63.088,43.262 C64.074,42.956 65.22,42.777 66.454,42.777 C67.938,42.777 69.307,43.028 70.395,43.466 C71.646,39.028 73.13,35.01 74.701,31.644 C75.159,35.42 75.159,40.07 74.688,45.189 C74.422,54.546 82.612,49.647 85.731,42.983 C86.565,41.22 89.141,38.453 92.138,38.791 C108.637,40.732 114.37,58.429 112.356,72.244 C112.282,72.727 112.195,72.934 112.09,72.964 C109.917,63.562 105.008,57.164 101.184,58.118 C97.358,59.064 95.979,66.786 97.814,76.053 C97.814,76.14 97.801,76.17 97.774,76.14 C96.462,74.86 95.198,74.007 93.978,73.494 C91.877,72.357 89.744,71.859 87.757,72.17 C83.702,72.8 81.29,76.668 81.041,81.967 C81.009,82.04 80.967,82.127 80.934,82.217 C80.847,82.405 80.789,81.833 80.715,81.642 C73.673,64.329 65.864,102.427 54.03,95.955 C52.867,95.32 52.131,95.001 51.839,95.001 C51.237,95.001 50.734,95.778 50.341,97.339 C50.045,98.412 49.5,98.942 48.72,98.942 C47.473,98.942 45.856,97.379 43.869,94.265 C44.897,94.822 45.765,95.101 46.46,95.101 C47.369,95.101 48.016,94.439 48.4,93.087 C48.693,92.086 49.295,89.47 50.734,89.47 C51.163,89.47 51.675,89.789 52.25,90.424 C56.574,94.379 59.776,90.881 59.397,85.629 C58.894,78.642 53.881,70.846 45.235,78.655 C44.97,78.893 44.427,79.774 44.446,79.404 C44.897,69.152 35.106,67.416 27.507,73.965 C28.122,60.799 17.582,62.165 14.376,67.886 C14.244,68.124 14.02,68.092 14.02,68.078 z" fill="#EBEDED"/>
    <path d="M72.916,65.867 C75.067,64.58 76.592,62.972 77.491,61.055 C75.258,62.21 72.834,63.064 70.212,63.644 C69.115,63.886 68.047,64.077 66.987,64.219 C63.228,64.316 59.374,63.457 55.424,61.63 C57.891,65.85 61.744,67.91 66.987,67.813 C69.06,67.622 71.039,66.972 72.916,65.867 z M56.246,55.588 C56.246,57.03 56.831,58.132 58.005,58.899 C58.749,59.238 59.494,59.405 60.238,59.405 C61.603,59.405 62.663,58.753 63.407,57.456 L56.36,54.583 C56.288,54.917 56.246,55.255 56.246,55.588 z M68.861,57.675 C69.605,58.588 70.486,59.041 71.509,59.041 C72.481,59.041 73.431,58.661 74.355,57.894 C75.271,57.122 75.729,56.136 75.729,54.939 C75.729,54.459 75.652,53.958 75.495,53.428 z" fill="#727272"/>
  </g>
  <defs/>
</svg>
